<svg width="16" height="16" viewBox="0 0 16 16" fill="none" xmlns="http://www.w3.org/2000/svg">
<g clip-path="url(#clip0_49_6123)">
<path d="M13.5 2.75H4.5C3.90326 2.75 3.33097 2.98705 2.90901 3.40901C2.48705 3.83097 2.25 4.40326 2.25 5V14C2.25 14.5967 2.48705 15.169 2.90901 15.591C3.33097 16.0129 3.90326 16.25 4.5 16.25H13.5C14.0967 16.25 14.669 16.0129 15.091 15.591C15.5129 15.169 15.75 14.5967 15.75 14V5C15.75 4.40326 15.5129 3.83097 15.091 3.40901C14.669 2.98705 14.0967 2.75 13.5 2.75ZM12.225 7.7075L8.7975 12.2075C8.72763 12.2983 8.6379 12.3718 8.5352 12.4225C8.43249 12.4732 8.31954 12.4997 8.205 12.5C8.09108 12.5006 7.97852 12.4753 7.87586 12.4259C7.77319 12.3765 7.68313 12.3044 7.6125 12.215L5.7825 9.8825C5.72193 9.80469 5.67727 9.71571 5.65109 9.62065C5.6249 9.52558 5.6177 9.42629 5.62989 9.32844C5.64207 9.23059 5.67342 9.1361 5.72212 9.05036C5.77083 8.96463 5.83594 8.88932 5.91375 8.82875C6.07089 8.70642 6.27019 8.65152 6.46781 8.67614C6.56566 8.68832 6.66015 8.71967 6.74589 8.76837C6.83162 8.81708 6.90693 8.88219 6.9675 8.96L8.19 10.52L11.025 6.77C11.0851 6.69121 11.1601 6.62502 11.2458 6.57521C11.3314 6.52541 11.426 6.49297 11.5242 6.47973C11.6224 6.4665 11.7223 6.47274 11.8181 6.49809C11.9139 6.52345 12.0037 6.56742 12.0825 6.6275C12.1613 6.68758 12.2275 6.76259 12.2773 6.84825C12.3271 6.93391 12.3595 7.02854 12.3728 7.12674C12.386 7.22494 12.3798 7.32478 12.3544 7.42056C12.3291 7.51635 12.2851 7.60621 12.225 7.685V7.7075Z" fill="#FFFFFF"/>
</g>
<defs>
<clipPath id="clip0_49_6123">
<rect width="16" height="16" fill="white" transform="translate(0 0.5)"/>
</clipPath>
</defs>
</svg>
