<svg width="20" height="20" viewBox="0 0 20 20" fill="none" xmlns="http://www.w3.org/2000/svg">
<path d="M14.8263 18.9596H5.1763C2.89297 18.9596 1.04297 17.1013 1.04297 14.8179V8.64295C1.04297 7.50961 1.74297 6.08461 2.64297 5.38461L7.13464 1.88461C8.48464 0.834614 10.643 0.784614 12.043 1.76795L17.193 5.37628C18.1846 6.06795 18.9596 7.55128 18.9596 8.75961V14.8263C18.9596 17.1013 17.1096 18.9596 14.8263 18.9596ZM7.9013 2.86795L3.40964 6.36795C2.81797 6.83461 2.29297 7.89295 2.29297 8.64295V14.8179C2.29297 16.4096 3.58464 17.7096 5.1763 17.7096H14.8263C16.418 17.7096 17.7096 16.4179 17.7096 14.8263V8.75961C17.7096 7.95961 17.1346 6.85128 16.4763 6.40128L11.3263 2.79295C10.3763 2.12628 8.80963 2.15961 7.9013 2.86795Z" fill="#0F0F0F"/>
<path d="M10 15.625C9.65833 15.625 9.375 15.3417 9.375 15V12.5C9.375 12.1583 9.65833 11.875 10 11.875C10.3417 11.875 10.625 12.1583 10.625 12.5V15C10.625 15.3417 10.3417 15.625 10 15.625Z" fill="#0F0F0F"/>
</svg>
