<svg width="48" height="48" viewBox="0 0 48 48" fill="none" xmlns="http://www.w3.org/2000/svg">
    <rect width="48" height="48" rx="24" fill="#0F0F0F"/>
    <path d="M26.4311 30.8211C26.2411 30.8211 26.0511 30.7511 25.9011 30.6011C25.6111 30.3111 25.6111 29.8311 25.9011 29.5411L31.4411 24.0011L25.9011 18.4611C25.6111 18.1711 25.6111 17.6911 25.9011 17.4011C26.1911 17.1111 26.6711 17.1111 26.9611 17.4011L33.0311 23.4711C33.3211 23.7611 33.3211 24.2411 33.0311 24.5311L26.9611 30.6011C26.8111 30.7511 26.6211 30.8211 26.4311 30.8211Z" fill="white"/>
    <path d="M32.33 24.748H15.5C15.09 24.748 14.75 24.408 14.75 23.998C14.75 23.588 15.09 23.248 15.5 23.248H32.33C32.74 23.248 33.08 23.588 33.08 23.998C33.08 24.408 32.74 24.748 32.33 24.748Z" fill="white"/>
    </svg>
    