<svg width="48" height="48" viewBox="0 0 48 48" fill="none" xmlns="http://www.w3.org/2000/svg">
    <rect width="48" height="48" rx="24" fill="white"/>
    <rect x="0.5" y="0.5" width="47" height="47" rx="23.5" stroke="#2E58EE" stroke-opacity="0.16"/>
    <path d="M21.5689 30.8211C21.7589 30.8211 21.9489 30.7511 22.0989 30.6011C22.3889 30.3111 22.3889 29.8311 22.0989 29.5411L16.5589 24.0011L22.0989 18.4611C22.3889 18.1711 22.3889 17.6911 22.0989 17.4011C21.8089 17.1111 21.3289 17.1111 21.0389 17.4011L14.9689 23.4711C14.6789 23.7611 14.6789 24.2411 14.9689 24.5311L21.0389 30.6011C21.1889 30.7511 21.3789 30.8211 21.5689 30.8211Z" fill="#0F0F0F"/>
    <path d="M15.67 24.748H32.5C32.91 24.748 33.25 24.408 33.25 23.998C33.25 23.588 32.91 23.248 32.5 23.248H15.67C15.26 23.248 14.92 23.588 14.92 23.998C14.92 24.408 15.26 24.748 15.67 24.748Z" fill="#0F0F0F"/>
    </svg>
    