<svg width="52" height="52" viewBox="0 0 52 52" fill="none" xmlns="http://www.w3.org/2000/svg">
    <rect width="52" height="52" rx="26" fill="#0F0F0F"/>
    <path fill-rule="evenodd" clip-rule="evenodd" d="M23 27C23 24.7909 24.7909 23 27 23H32C34.2091 23 36 24.7909 36 27V32C36 34.2091 34.2091 36 32 36H27C24.7909 36 23 34.2091 23 32V27ZM27 25C25.8954 25 25 25.8954 25 27V32C25 33.1046 25.8954 34 27 34H32C33.1046 34 34 33.1046 34 32V27C34 25.8954 33.1046 25 32 25H27Z" fill="white"/>
    <path fill-rule="evenodd" clip-rule="evenodd" d="M16 20C16 17.7909 17.7909 16 20 16H25C27.2091 16 29 17.7909 29 20V20.2083C29 20.7606 28.5523 21.2083 28 21.2083C27.4477 21.2083 27 20.7606 27 20.2083V20C27 18.8954 26.1046 18 25 18H20C18.8954 18 18 18.8954 18 20V25C18 26.1046 18.8954 27 20 27H20.2083C20.7606 27 21.2083 27.4477 21.2083 28C21.2083 28.5523 20.7606 29 20.2083 29H20C17.7909 29 16 27.2091 16 25V20Z" fill="white"/>
    </svg>
    