<svg width="170" height="23" viewBox="0 0 170 23" fill="none" xmlns="http://www.w3.org/2000/svg">
    <path d="M60.4349 13.4603C60.2033 14.5502 59.7401 15.3812 59.0862 15.9262C58.4322 16.4711 57.6148 16.7572 56.6612 16.7572C55.871 16.7572 55.1353 16.5529 54.4541 16.1441C53.7865 15.7491 53.2825 15.1224 52.9691 14.3049C52.6422 13.4739 52.4787 12.493 52.4787 11.3895C52.4787 10.5312 52.6149 9.68649 52.8874 8.86907C53.1599 8.06527 53.6367 7.42495 54.2906 6.94812C54.9582 6.47129 55.7892 6.23969 56.7838 6.23969C57.6421 6.23969 58.3641 6.45767 58.9227 6.88C59.4949 7.30234 59.9308 7.99715 60.2306 8.93719L60.2578 9.04618L62.2196 8.58297L62.1788 8.46036C61.8109 7.20697 61.1706 6.22606 60.2442 5.53125C59.3178 4.83644 58.1598 4.49585 56.811 4.49585C55.6257 4.49585 54.5222 4.76832 53.5277 5.31327C52.5332 5.85822 51.7566 6.66202 51.2253 7.71105C50.694 8.76008 50.4215 9.99984 50.4215 11.3895C50.4215 12.6701 50.6667 13.8826 51.1299 14.9998C51.6067 16.1305 52.3152 17.0024 53.228 17.5883C54.1408 18.1877 55.3396 18.4874 56.7974 18.4874C58.2551 18.4874 59.4131 18.0923 60.3941 17.3158C61.375 16.5392 62.0562 15.4085 62.424 13.9507L62.4512 13.8281L60.4485 13.324L60.4213 13.4466L60.4349 13.4603Z" fill="white"/>
    <path d="M68.2277 4.71387L63.0234 18.2559H65.1487L71.729 14.7137H66.4294L69.2359 6.70293C69.2359 6.70293 69.5492 7.62935 69.7127 8.10618C69.8217 8.41952 69.9307 8.71925 70.0397 9.03259L73.5546 18.2559H75.8161L70.2713 4.71387H68.2141H68.2277Z" fill="white"/>
    <path d="M86.0066 5.49047C85.5571 5.17712 84.9849 4.95914 84.3173 4.85015C83.8405 4.76841 83.1593 4.72754 82.2737 4.72754H77.1376V18.2695H79.1403V12.8609H82.4372C84.3445 12.8609 85.6933 12.4522 86.429 11.6484C87.1647 10.8446 87.5461 9.85006 87.5461 8.69205C87.5461 8.01086 87.4099 7.38417 87.1238 6.82559C86.8513 6.2534 86.4698 5.81744 86.0203 5.49047M84.8078 10.4359C84.3582 10.8446 83.568 11.0353 82.4645 11.0353H79.1403V6.51225H82.4236C83.2138 6.51225 83.7451 6.55312 84.0312 6.62124C84.4672 6.74385 84.8078 6.98908 85.0802 7.35692C85.3527 7.72476 85.4753 8.18797 85.4753 8.71929C85.4753 9.45498 85.2437 10.0272 84.7941 10.4223" fill="white"/>
    <path d="M97.6142 11.0352C97.0828 10.79 96.0747 10.5039 94.6442 10.1769C93.2409 9.86355 92.369 9.55021 92.042 9.25049C91.7151 8.96439 91.5652 8.61017 91.5652 8.16059C91.5652 7.64288 91.7968 7.20693 92.2464 6.83908C92.696 6.47124 93.4725 6.28051 94.4943 6.28051C95.5161 6.28051 96.2382 6.48487 96.7422 6.89358C97.2463 7.30229 97.5324 7.91536 97.6278 8.71916V8.82815L99.5623 8.67829V8.5693C99.5215 7.7655 99.3035 7.04344 98.8812 6.41675C98.4588 5.77643 97.8594 5.2996 97.0964 4.97263C96.3335 4.64566 95.4344 4.48218 94.4398 4.48218C93.527 4.48218 92.696 4.63204 91.9467 4.94539C91.1974 5.25873 90.6116 5.72194 90.2165 6.32138C89.8214 6.92083 89.617 7.57477 89.617 8.26958C89.617 8.89627 89.7805 9.48209 90.1075 9.98617C90.4344 10.4902 90.9249 10.9262 91.5788 11.2668C92.0829 11.5257 92.9548 11.8117 94.181 12.1115C95.3935 12.3976 96.1837 12.6155 96.5379 12.7518C97.0692 12.9561 97.4643 13.2014 97.6823 13.5011C97.9139 13.7872 98.0229 14.1278 98.0229 14.5229C98.0229 14.918 97.9003 15.2722 97.6686 15.5991C97.437 15.9261 97.0692 16.185 96.5787 16.3757C96.0747 16.5664 95.4888 16.6618 94.8349 16.6618C94.0992 16.6618 93.4317 16.5392 92.8322 16.2803C92.2464 16.0351 91.8241 15.6945 91.5516 15.2858C91.2791 14.8771 91.102 14.3458 91.0203 13.7054V13.5965L89.1129 13.7599V13.8689C89.1402 14.7817 89.399 15.5991 89.8622 16.3212C90.3391 17.0433 90.993 17.5882 91.8241 17.9561C92.6551 18.3103 93.6769 18.4874 94.903 18.4874C95.8703 18.4874 96.7422 18.3103 97.5188 17.9561C98.2953 17.6018 98.8948 17.0978 99.3171 16.4438C99.7395 15.8035 99.9438 15.1087 99.9438 14.373C99.9438 13.6373 99.7531 12.9834 99.3716 12.4112C98.9902 11.8526 98.3907 11.3758 97.6005 11.0079" fill="white"/>
    <path d="M101.32 6.52582H105.707V18.2695H107.696V6.52582H112.11V4.71387H101.32V6.52582Z" fill="white"/>
    <path d="M122.872 5.38134C121.878 4.7819 120.734 4.48218 119.494 4.48218C117.586 4.48218 116.02 5.12249 114.807 6.3895C113.608 7.65651 112.995 9.4276 112.995 11.6619C112.995 12.8472 113.254 13.9779 113.772 15.0406C114.29 16.1032 115.052 16.9615 116.061 17.5746C117.055 18.1877 118.213 18.501 119.48 18.501C120.652 18.501 121.755 18.2149 122.763 17.67C123.785 17.1114 124.575 16.2803 125.134 15.2041C125.679 14.1278 125.965 12.888 125.965 11.5257C125.965 10.1633 125.693 8.96439 125.175 7.90174C124.644 6.83908 123.881 5.99441 122.872 5.39497M122.654 15.3948C121.823 16.294 120.747 16.7572 119.467 16.7572C118.186 16.7572 117.137 16.3076 116.306 15.4084C115.475 14.5092 115.039 13.2695 115.039 11.7028C115.039 9.74094 115.475 8.32407 116.347 7.49302C117.219 6.66198 118.268 6.23964 119.48 6.23964C120.325 6.23964 121.115 6.45762 121.796 6.89358C122.477 7.32954 123.009 7.94261 123.363 8.71916C123.717 9.50934 123.894 10.4494 123.894 11.512C123.894 13.1877 123.472 14.4956 122.641 15.3948" fill="white"/>
    <path d="M136.959 14.8908L130.188 4.76836L130.148 4.71387H128.159V18.2695H130.079V8.07893L136.891 18.2695H138.88V4.71387H136.959V14.8908Z" fill="white"/>
    <path d="M143.826 12.1661H150.093V10.3677H143.826V6.52582H151.687V4.71387H141.837V18.2695H152V16.4575H143.826V12.1661Z" fill="white"/>
    <path d="M23.2421 0H22.9696C23.065 0.0953662 23.1467 0.177109 23.2421 0.272475L45.9392 22.9696V0H23.2421Z" fill="white"/>
    <path d="M22.7789 0.190732L0 22.9696H22.9696V0.381465V0L22.7789 0.190732Z" fill="white"/>
    </svg>
    