<svg width="171" height="22" viewBox="0 0 171 22" fill="none" xmlns="http://www.w3.org/2000/svg">
    <g clip-path="url(#clip0_25_1690)">
    <path d="M16.3415 3.63699H15.2334V2.52887H14.1253V1.4248H4.14404V3.63699H1.9278V18.0345H3.03592V19.1426H4.14404V20.2507H5.25217V21.3589H15.2334V19.1426H17.4497V13.6061H16.3415V12.4979H10.7968V14.7142H8.5806V8.06543H10.7968V9.17356H11.905V10.2817H17.4497V4.74512H16.3415V3.63699Z" fill="black"/>
    <path d="M16.3415 3.63699H15.2334V2.52887H14.1253V1.4248H4.14404V3.63699H1.9278V18.0345H3.03592V19.1426H4.14404V20.2507H5.25217V21.3589H15.2334V19.1426H17.4497V13.6061H16.3415V12.4979H10.7968V14.7142H8.5806V8.06543H10.7968V9.17356H11.905V10.2817H17.4497V4.74512H16.3415V3.63699Z" fill="black"/>
    <path d="M21.6833 1.4248H16.1386V20.2507H17.2508V21.3589H22.7914V2.52887H21.6833V1.4248Z" fill="black"/>
    <path d="M21.6833 1.4248H16.1386V20.2507H17.2508V21.3589H22.7914V2.52887H21.6833V1.4248Z" fill="black"/>
    <path d="M35.8778 1.4248H21.4641V6.96137H22.5722V8.06543H25.9007V20.2507H27.0088V21.3589H32.5494V8.06543H36.986V2.52887H35.8778V1.4248Z" fill="black"/>
    <path d="M35.8778 1.4248H21.4641V6.96137H22.5722V8.06543H25.9007V20.2507H27.0088V21.3589H32.5494V8.06543H36.986V2.52887H35.8778V1.4248Z" fill="black"/>
    <path d="M51.0181 1.4248H45.4775V6.96137H43.2613V2.52887H42.1491V1.4248H36.6085V10.2817H37.7166V11.3898H38.8247V12.4979H39.9328V13.6061H41.041V20.2507H42.1491V21.3589H47.6938V13.6061H49.91V11.3898H52.1303V2.52887H51.0181V1.4248Z" fill="black"/>
    <path d="M51.0181 1.4248H45.4775V6.96137H43.2613V2.52887H42.1491V1.4248H36.6085V10.2817H37.7166V11.3898H38.8247V12.4979H39.9328V13.6061H41.041V20.2507H42.1491V21.3589H47.6938V13.6061H49.91V11.3898H52.1303V2.52887H51.0181V1.4248Z" fill="black"/>
    <path d="M70.1201 3.36905H69.0242V2.26904H67.9242V1.1731H58.0282V3.36905H55.8322V17.6448H56.9322V18.7448H58.0282V19.8407H59.1282V20.9407H69.0242V18.7448H71.2201V13.2529H70.1201V12.1569H64.6241V14.3529H62.4282V7.76096H64.6241V8.8569H65.7241V9.95691H71.2201V4.465H70.1201V3.36905Z" fill="black"/>
    <path d="M70.1201 3.36905H69.0242V2.26904H67.9242V1.1731H58.0282V3.36905H55.8322V17.6448H56.9322V18.7448H58.0282V19.8407H59.1282V20.9407H69.0242V18.7448H71.2201V13.2529H70.1201V12.1569H64.6241V14.3529H62.4282V7.76096H64.6241V8.8569H65.7241V9.95691H71.2201V4.465H70.1201V3.36905Z" fill="black"/>
    <path d="M83.925 3.49884H82.825V2.39883H81.7249V1.29883H69.633V19.9705H70.733V21.0705H76.229V15.5786H78.429V19.9705H79.529V21.0705H85.025V4.59885H83.925V3.49884ZM78.429 8.99075H76.229V7.89075H78.429V8.99075Z" fill="black"/>
    <path d="M83.925 3.49884H82.825V2.39883H81.7249V1.29883H69.633V19.9705H70.733V21.0705H76.229V15.5786H78.429V19.9705H79.529V21.0705H85.025V4.59885H83.925V3.49884ZM78.429 8.99075H76.229V7.89075H78.429V8.99075Z" fill="black"/>
    <path d="M97.8435 5.492H96.7435V4.392H95.6435V3.29605H94.5435V2.19604H93.4475V1.1001H87.9515V3.29605H85.7515V5.492H83.5515V19.7677H84.6515V20.8677H90.1475V16.4758H92.3475V19.7677H93.4475V20.8677H98.9435V6.58795H97.8435V5.492Z" fill="black"/>
    <path d="M97.8435 5.492H96.7435V4.392H95.6435V3.29605H94.5435V2.19604H93.4475V1.1001H87.9515V3.29605H85.7515V5.492H83.5515V19.7677H84.6515V20.8677H90.1475V16.4758H92.3475V19.7677H93.4475V20.8677H98.9435V6.58795H97.8435V5.492Z" fill="black"/>
    <path d="M111.62 1.30298H98.428V19.9747H99.528V21.0747H105.024V14.4828H110.52V8.99084H109.42V7.89084H112.716V2.40298H111.62V1.30298Z" fill="black"/>
    <path d="M111.62 1.30298H98.428V19.9747H99.528V21.0747H105.024V14.4828H110.52V8.99084H109.42V7.89084H112.716V2.40298H111.62V1.30298Z" fill="black"/>
    <path d="M125.823 1.30298H111.531V6.79489H112.627V7.89084H115.927V19.9747H117.027V21.0747H122.523V7.89084H126.919V2.40298H125.819L125.823 1.30298Z" fill="black"/>
    <path d="M125.823 1.30298H111.531V6.79489H112.627V7.89084H115.927V19.9747H117.027V21.0747H122.523V7.89084H126.919V2.40298H125.819L125.823 1.30298Z" fill="black"/>
    <path d="M139.149 1.44507H125.957V20.1168H127.057V21.2168H140.249V15.7249H139.149V14.6289H138.053V9.13699H136.953V8.03699H140.249V2.54913H139.149V1.44507Z" fill="black"/>
    <path d="M139.149 1.44507H125.957V20.1168H127.057V21.2168H140.249V15.7249H139.149V14.6289H138.053V9.13699H136.953V8.03699H140.249V2.54913H139.149V1.44507Z" fill="black"/>
    <path d="M154.126 3.58405H153.026V2.48404H151.926V1.38403H139.834V20.0557H140.934V21.1557H146.43V15.6638H148.63V20.0557H149.73V21.1557H155.226V4.67999H154.126V3.57999V3.58405ZM148.63 9.07596H146.43V7.97595H148.63V9.07596Z" fill="black"/>
    <path d="M154.126 3.58405H153.026V2.48404H151.926V1.38403H139.834V20.0557H140.934V21.1557H146.43V15.6638H148.63V20.0557H149.73V21.1557H155.226V4.67999H154.126V3.57999V3.58405ZM148.63 9.07596H146.43V7.97595H148.63V9.07596Z" fill="black"/>
    <path d="M169.9 4.68414V3.5882H168.8V2.48819H167.704V1.38818H157.812V3.58414H155.608V10.8986V12.372V13.1392V17.8639H156.704V18.9599H157.808V20.0558H158.904V21.1558H168.8V18.9599H171V12.3639V11.9986V10.1761V4.68414H169.9Z" fill="black"/>
    <path d="M13.0131 0.3125H3.03595V2.52875H0.819702V16.9303H3.03595V19.1425H13.0131V16.9303H15.2334V11.3897H9.68876V13.6059H6.36438V5.85312H9.68876V8.06937H15.2334V2.52875H13.0131V0.3125Z" fill="#181C2E"/>
    <path d="M13.0131 0.3125H3.03595V2.52875H0.819702V16.9303H3.03595V19.1425H13.0131V16.9303H15.2334V11.3897H9.68876V13.6059H6.36438V5.85312H9.68876V8.06937H15.2334V2.52875H13.0131V0.3125Z" fill="#181C2E"/>
    <path d="M11.905 1.4248H4.14404V3.63699H1.9278V15.8223H4.14404V18.0386H11.905V15.8223H14.1253V12.4979H10.7968V14.7142H5.25217V4.74512H10.7968V6.96137H14.1253V3.63699H11.905V1.4248Z" fill="#F1EDFC"/>
    <path d="M11.905 1.4248H4.14404V3.63699H1.9278V15.8223H4.14404V18.0386H11.905V15.8223H14.1253V12.4979H10.7968V14.7142H5.25217V4.74512H10.7968V6.96137H14.1253V3.63699H11.905V1.4248Z" fill="#F1EDFC"/>
    <path d="M3.03592 4.74512H5.25217V2.52887H11.905V1.4248H4.14404V3.63699H1.9278V15.8223H3.03592V4.74512Z" fill="#B712FC"/>
    <path d="M3.03592 4.74512H5.25217V2.52887H11.905V1.4248H4.14404V3.63699H1.9278V15.8223H3.03592V4.74512Z" fill="#B712FC"/>
    <path d="M20.5752 0.3125H15.0305V19.1425H20.5752V0.3125Z" fill="#181C2E"/>
    <path d="M20.5752 0.3125H15.0305V19.1425H20.5752V0.3125Z" fill="#181C2E"/>
    <path d="M19.463 1.4248H16.1386V18.0386H19.463V1.4248Z" fill="#F1EDFC"/>
    <path d="M19.463 1.4248H16.1386V18.0386H19.463V1.4248Z" fill="#F1EDFC"/>
    <path d="M17.2508 2.52887H19.467V1.4248H16.1386V18.0345H17.2508V2.52887Z" fill="#B712FC"/>
    <path d="M17.2508 2.52887H19.467V1.4248H16.1386V18.0345H17.2508V2.52887Z" fill="#B712FC"/>
    <path d="M17.2467 1.4248H16.1386V2.53293H17.2467V1.4248Z" fill="#FEE900"/>
    <path d="M17.2467 1.4248H16.1386V2.53293H17.2467V1.4248Z" fill="#FEE900"/>
    <path d="M20.356 5.85312H24.7885V19.1425H30.3331V5.85312H34.7697V0.3125H20.356V5.85312Z" fill="#181C2E"/>
    <path d="M20.356 5.85312H24.7885V19.1425H30.3331V5.85312H34.7697V0.3125H20.356V5.85312Z" fill="#181C2E"/>
    <path d="M21.4641 4.74512H25.9007V18.0345H29.225V4.74512H33.6575V1.4248H21.4641V4.74512Z" fill="#F1EDFC"/>
    <path d="M21.4641 4.74512H25.9007V18.0345H29.225V4.74512H33.6575V1.4248H21.4641V4.74512Z" fill="#F1EDFC"/>
    <path d="M22.5722 2.52887H33.6616V1.4248H21.4641V4.74512H22.5722V2.52887Z" fill="#B712FC"/>
    <path d="M22.5722 2.52887H33.6616V1.4248H21.4641V4.74512H22.5722V2.52887Z" fill="#B712FC"/>
    <path d="M27.0088 5.85303H25.9007V18.0343H27.0088V5.85303Z" fill="#12F6FC"/>
    <path d="M27.0088 5.85303H25.9007V18.0343H27.0088V5.85303Z" fill="#12F6FC"/>
    <path d="M22.5722 1.4248H21.4641V2.53293H22.5722V1.4248Z" fill="#FEE900"/>
    <path d="M22.5722 1.4248H21.4641V2.53293H22.5722V1.4248Z" fill="#FEE900"/>
    <path d="M44.3694 5.85312H41.041V0.3125H35.5004V9.17344H37.7166V11.3897H39.9329V19.1425H45.4775V11.3897H47.6938V9.17749H49.91V0.3125H44.3694V5.85312Z" fill="#181C2E"/>
    <path d="M44.3694 5.85312H41.041V0.3125H35.5004V9.17344H37.7166V11.3897H39.9329V19.1425H45.4775V11.3897H47.6938V9.17749H49.91V0.3125H44.3694V5.85312Z" fill="#181C2E"/>
    <path d="M45.4775 6.96137H43.2613V9.17762H42.1491V6.96137H39.9328V1.4248H36.6085V8.06949H38.8247V10.2857H41.041V18.0386H44.3694V10.2857H46.5856V8.06543H48.8019V1.4248H45.4775V6.96137Z" fill="#F1EDFC"/>
    <path d="M45.4775 6.96137H43.2613V9.17762H42.1491V6.96137H39.9328V1.4248H36.6085V8.06949H38.8247V10.2857H41.041V18.0386H44.3694V10.2857H46.5856V8.06543H48.8019V1.4248H45.4775V6.96137Z" fill="#F1EDFC"/>
    <path d="M42.1491 6.96118H41.041V8.06931H42.1491V6.96118Z" fill="#B712FC"/>
    <path d="M42.1491 6.96118H41.041V8.06931H42.1491V6.96118Z" fill="#B712FC"/>
    <path d="M43.2612 10.2817H44.3694V8.06543H46.5856V2.52887H48.8019V1.4248H45.4775V6.96137H43.2612V9.17762V10.2817Z" fill="white"/>
    <path d="M43.2612 10.2817H44.3694V8.06543H46.5856V2.52887H48.8019V1.4248H45.4775V6.96137H43.2612V9.17762V10.2817Z" fill="white"/>
    <path d="M39.9328 9.17749H38.8247V10.2856H39.9328V9.17749Z" fill="#B712FC"/>
    <path d="M39.9328 9.17749H38.8247V10.2856H39.9328V9.17749Z" fill="#B712FC"/>
    <path d="M37.7166 2.52887H39.9328V1.4248H36.6085V8.06949H37.7166V2.52887Z" fill="#B712FC"/>
    <path d="M37.7166 2.52887H39.9328V1.4248H36.6085V8.06949H37.7166V2.52887Z" fill="#B712FC"/>
    <path d="M42.1491 11.3896H41.041V18.0343H42.1491V11.3896Z" fill="#B712FC"/>
    <path d="M42.1491 11.3896H41.041V18.0343H42.1491V11.3896Z" fill="#B712FC"/>
    <path d="M37.7166 1.4248H36.6085V2.53293H37.7166V1.4248Z" fill="#FEE900"/>
    <path d="M37.7166 1.4248H36.6085V2.53293H37.7166V1.4248Z" fill="#FEE900"/>
    <path d="M44.3694 6.96118H43.2612V8.06931H44.3694V6.96118Z" fill="#FEE900"/>
    <path d="M44.3694 6.96118H43.2612V8.06931H44.3694V6.96118Z" fill="#FEE900"/>
    <path d="M46.5857 1.4248H45.4775V2.53293H46.5857V1.4248Z" fill="#FEE900"/>
    <path d="M46.5857 1.4248H45.4775V2.53293H46.5857V1.4248Z" fill="#FEE900"/>
    <path d="M11.9415 1.4248H4.0994V3.66541H1.85474V15.9765H4.0994V18.2131H11.9415V15.9765H14.1821V12.6197H10.8212V14.8562H5.2197V4.78165H10.8212V7.02225H14.1821V3.66541H11.9415V1.4248Z" fill="#F1EDFC"/>
    <path d="M11.9415 1.4248H4.0994V3.66541H1.85474V15.9765H4.0994V18.2131H11.9415V15.9765H14.1821V12.6197H10.8212V14.8562H5.2197V4.78165H10.8212V7.02225H14.1821V3.66541H11.9415V1.4248Z" fill="#F1EDFC"/>
    <path d="M10.8212 14.8562H6.34003V15.9765H11.9415V13.7359H14.1821V12.6196H10.8212V14.8562Z" fill="#12F6FC"/>
    <path d="M10.8212 14.8562H6.34003V15.9765H11.9415V13.7359H14.1821V12.6196H10.8212V14.8562Z" fill="#12F6FC"/>
    <path d="M11.9415 5.90186H10.8212V7.02216H11.9415V5.90186Z" fill="#12F6FC"/>
    <path d="M11.9415 5.90186H10.8212V7.02216H11.9415V5.90186Z" fill="#12F6FC"/>
    <path d="M14.1821 3.66528H13.0618V4.78558H14.1821V3.66528Z" fill="white"/>
    <path d="M14.1821 3.66528H13.0618V4.78558H14.1821V3.66528Z" fill="white"/>
    <path d="M5.21973 17.0969H4.09943V18.2172H5.21973V17.0969Z" fill="#FEE900"/>
    <path d="M5.21973 17.0969H4.09943V18.2172H5.21973V17.0969Z" fill="#FEE900"/>
    <path d="M2.9791 4.78165H5.2197V2.54511H11.9415V1.4248H4.0994V3.66541H1.85474V15.9765H2.97504L2.9791 4.78165Z" fill="#6021EA"/>
    <path d="M2.9791 4.78165H5.2197V2.54511H11.9415V1.4248H4.0994V3.66541H1.85474V15.9765H2.97504L2.9791 4.78165Z" fill="#6021EA"/>
    <path d="M2.97504 3.66528H1.85474V4.78558H2.97504V3.66528Z" fill="#85F9FF"/>
    <path d="M2.97504 3.66528H1.85474V4.78558H2.97504V3.66528Z" fill="#85F9FF"/>
    <path d="M5.21973 1.4248H4.09943V2.54511H5.21973V1.4248Z" fill="#85F9FF"/>
    <path d="M5.21973 1.4248H4.09943V2.54511H5.21973V1.4248Z" fill="#85F9FF"/>
    <path d="M11.9415 12.6196H10.8212V13.7399H11.9415V12.6196Z" fill="#85F9FF"/>
    <path d="M11.9415 12.6196H10.8212V13.7399H11.9415V12.6196Z" fill="#85F9FF"/>
    <path d="M11.9415 14.8562H10.8212V15.9765H11.9415V14.8562Z" fill="#85F9FF"/>
    <path d="M11.9415 14.8562H10.8212V15.9765H11.9415V14.8562Z" fill="#85F9FF"/>
    <path d="M162.626 6.66089H158.356V12.1528H162.626V6.66089Z" fill="#181C2E"/>
    <path d="M66.824 0.0690918H56.9321V2.26505H54.728V16.5448H56.928V18.7408H66.824V16.5448H69.024V11.0529H63.524V13.2489H60.2281V5.56506H63.524V7.76102H69.024V2.2691H66.824V0.0690918Z" fill="#181C2E"/>
    <path d="M66.824 0.0690918H56.9321V2.26505H54.728V16.5448H56.928V18.7408H66.824V16.5448H69.024V11.0529H63.524V13.2489H60.2281V5.56506H63.524V7.76102H69.024V2.2691H66.824V0.0690918Z" fill="#181C2E"/>
    <path d="M65.724 1.1731H58.028V3.36905H55.8321V15.4488H58.028V17.6448H65.724V15.4488H67.924V12.1529H64.624V14.3488H59.128V4.465H64.624V6.66095H67.924V3.36905H65.724V1.1731Z" fill="#F1EDFC"/>
    <path d="M65.724 1.1731H58.028V3.36905H55.8321V15.4488H58.028V17.6448H65.724V15.4488H67.924V12.1529H64.624V14.3488H59.128V4.465H64.624V6.66095H67.924V3.36905H65.724V1.1731Z" fill="#F1EDFC"/>
    <path d="M64.6241 14.3488H60.2281V15.4488H65.7241V13.2488H67.9241V12.1528H64.6241V14.3488Z" fill="#12F6FC"/>
    <path d="M64.6241 14.3488H60.2281V15.4488H65.7241V13.2488H67.9241V12.1528H64.6241V14.3488Z" fill="#12F6FC"/>
    <path d="M65.724 5.56494H64.624V6.66495H65.724V5.56494Z" fill="#12F6FC"/>
    <path d="M65.724 5.56494H64.624V6.66495H65.724V5.56494Z" fill="#12F6FC"/>
    <path d="M67.9241 3.36914H66.8241V4.46915H67.9241V3.36914Z" fill="white"/>
    <path d="M67.9241 3.36914H66.8241V4.46915H67.9241V3.36914Z" fill="white"/>
    <path d="M59.1281 16.5447H58.0281V17.6447H59.1281V16.5447Z" fill="#FEE900"/>
    <path d="M59.1281 16.5447H58.0281V17.6447H59.1281V16.5447Z" fill="#FEE900"/>
    <path d="M56.9321 4.465H59.128V2.26904H65.724V1.1731H58.028V3.36905H55.8321V15.4488H56.9321V4.465Z" fill="#6021EA"/>
    <path d="M56.9321 4.465H59.128V2.26904H65.724V1.1731H58.028V3.36905H55.8321V15.4488H56.9321V4.465Z" fill="#6021EA"/>
    <path d="M56.9321 3.36914H55.8321V4.46915H56.9321V3.36914Z" fill="#85F9FF"/>
    <path d="M56.9321 3.36914H55.8321V4.46915H56.9321V3.36914Z" fill="#85F9FF"/>
    <path d="M59.1281 1.1731H58.0281V2.2731H59.1281V1.1731Z" fill="#85F9FF"/>
    <path d="M59.1281 1.1731H58.0281V2.2731H59.1281V1.1731Z" fill="#85F9FF"/>
    <path d="M65.724 12.1528H64.624V13.2528H65.724V12.1528Z" fill="#85F9FF"/>
    <path d="M65.724 12.1528H64.624V13.2528H65.724V12.1528Z" fill="#85F9FF"/>
    <path d="M65.724 14.3489H64.624V15.4489H65.724V14.3489Z" fill="#85F9FF"/>
    <path d="M65.724 14.3489H64.624V15.4489H65.724V14.3489Z" fill="#85F9FF"/>
    <path d="M153.412 11.0529V16.5448H155.608V18.7407H165.504V16.5448H167.704V9.5835H162.204V13.2488H158.908V11.0529H153.412Z" fill="#181C2E"/>
    <path d="M153.412 11.0529V16.5448H155.608V18.7407H165.504V16.5448H167.704V9.5835H162.204V13.2488H158.908V11.0529H153.412Z" fill="#181C2E"/>
    <path d="M154.512 12.1529V15.4488H156.708V17.6448H164.404V15.4488H166.6V9.5835H163.304V14.3488H157.808V12.1529H154.512Z" fill="#F1EDFC"/>
    <path d="M154.512 12.1529V15.4488H156.708V17.6448H164.404V15.4488H166.6V9.5835H163.304V14.3488H157.808V12.1529H154.512Z" fill="#F1EDFC"/>
    <path d="M157.808 14.3488H162.204V15.4488H156.708V13.2488H154.508V12.1528H157.808V14.3488Z" fill="#12F6FC"/>
    <path d="M157.808 14.3488H162.204V15.4488H156.708V13.2488H154.508V12.1528H157.808V14.3488Z" fill="#12F6FC"/>
    <path d="M164.404 16.5447H163.304V17.6447H164.404V16.5447Z" fill="#FEE900"/>
    <path d="M164.404 16.5447H163.304V17.6447H164.404V16.5447Z" fill="#FEE900"/>
    <path d="M166.6 9.5835H165.5V15.4529H166.6V9.5835Z" fill="#6021EA"/>
    <path d="M157.808 12.1528H156.708V13.2528H157.808V12.1528Z" fill="#85F9FF"/>
    <path d="M157.808 12.1528H156.708V13.2528H157.808V12.1528Z" fill="#85F9FF"/>
    <path d="M157.808 14.3489H156.708V15.4489H157.808V14.3489Z" fill="#85F9FF"/>
    <path d="M157.808 14.3489H156.708V15.4489H157.808V14.3489Z" fill="#85F9FF"/>
    <path d="M80.6289 0.207031H68.537V18.8787H74.033V13.3868H77.3289V18.8787H82.8249V2.40298H80.6249V0.207031H80.6289ZM77.333 7.89084H74.037V5.69488H77.333V7.89084Z" fill="#181C2E"/>
    <path d="M80.6289 0.207031H68.537V18.8787H74.033V13.3868H77.3289V18.8787H82.8249V2.40298H80.6249V0.207031H80.6289ZM77.333 7.89084H74.037V5.69488H77.333V7.89084Z" fill="#181C2E"/>
    <path d="M79.5289 1.30298H69.637V17.7787H72.9329V12.2868H78.4289V17.7787H81.7249V11.1909H79.5248V10.0909H81.7249V3.49893H79.5248V1.30298H79.5289ZM78.4289 8.99084H72.9329V4.59894H78.4289V8.99084Z" fill="#F1EDFC"/>
    <path d="M79.5289 1.30298H69.637V17.7787H72.9329V12.2868H78.4289V17.7787H81.7249V11.1909H79.5248V10.0909H81.7249V3.49893H79.5248V1.30298H79.5289ZM78.4289 8.99084H72.9329V4.59894H78.4289V8.99084Z" fill="#F1EDFC"/>
    <path d="M79.5289 5.69482H78.4289V8.99078H74.033V10.0867H79.5289V5.69482Z" fill="#12F6FC"/>
    <path d="M79.5289 5.69482H78.4289V8.99078H74.033V10.0867H79.5289V5.69482Z" fill="#12F6FC"/>
    <path d="M81.729 11.1868H80.629V12.2868H81.729V11.1868Z" fill="#12F6FC"/>
    <path d="M81.729 11.1868H80.629V12.2868H81.729V11.1868Z" fill="#12F6FC"/>
    <path d="M81.729 3.49902H80.629V4.59903H81.729V3.49902Z" fill="white"/>
    <path d="M81.729 3.49902H80.629V4.59903H81.729V3.49902Z" fill="white"/>
    <path d="M70.737 2.40298H79.533V1.30298H69.637V17.7787H70.737V2.40298Z" fill="#B712FC"/>
    <path d="M70.737 2.40298H79.533V1.30298H69.637V17.7787H70.737V2.40298Z" fill="#B712FC"/>
    <path d="M79.5289 13.3828H78.4289V17.7747H79.5289V13.3828Z" fill="#12F6FC"/>
    <path d="M79.5289 13.3828H78.4289V17.7747H79.5289V13.3828Z" fill="#12F6FC"/>
    <path d="M70.737 1.30298H69.637V2.40298H70.737V1.30298Z" fill="#85F9FF"/>
    <path d="M70.737 1.30298H69.637V2.40298H70.737V1.30298Z" fill="#85F9FF"/>
    <path d="M79.5289 8.99072H78.4289V10.0907H79.5289V8.99072Z" fill="#85F9FF"/>
    <path d="M79.5289 8.99072H78.4289V10.0907H79.5289V8.99072Z" fill="#85F9FF"/>
    <path d="M94.5434 2.19595H92.3434V0H86.8474V2.19595H84.6474V4.39191H82.4474V18.6717H87.9434V14.2757H91.2393V18.6676H96.7353V4.39191H94.5353V2.19595H94.5434ZM91.2474 8.78381H87.9515V7.68381H91.2474V8.78381Z" fill="#181C2E"/>
    <path d="M94.5434 2.19595H92.3434V0H86.8474V2.19595H84.6474V4.39191H82.4474V18.6717H87.9434V14.2757H91.2393V18.6676H96.7353V4.39191H94.5353V2.19595H94.5434ZM91.2474 8.78381H87.9515V7.68381H91.2474V8.78381Z" fill="#181C2E"/>
    <path d="M93.4474 3.29605H91.2474V1.1001H87.9515V3.29605H85.7515V5.492H83.5515V17.5758H86.8474V13.1799H92.3434V17.5718H95.6393V5.492H93.4393V3.29605H93.4474ZM92.3474 9.88391H86.8515V6.58795H89.0515V4.392H90.1515V6.58795H92.3515V9.88391H92.3474Z" fill="#F1EDFC"/>
    <path d="M93.4474 3.29605H91.2474V1.1001H87.9515V3.29605H85.7515V5.492H83.5515V17.5758H86.8474V13.1799H92.3434V17.5718H95.6393V5.492H93.4393V3.29605H93.4474ZM92.3474 9.88391H86.8515V6.58795H89.0515V4.392H90.1515V6.58795H92.3515V9.88391H92.3474Z" fill="#F1EDFC"/>
    <path d="M95.6434 5.49194H94.5434V6.59195H95.6434V5.49194Z" fill="#FEE900"/>
    <path d="M95.6434 5.49194H94.5434V6.59195H95.6434V5.49194Z" fill="#FEE900"/>
    <path d="M91.2474 5.49194H90.1474V6.59195H91.2474V5.49194Z" fill="white"/>
    <path d="M91.2474 5.49194H90.1474V6.59195H91.2474V5.49194Z" fill="white"/>
    <path d="M93.4475 3.2959H92.3475V4.3959H93.4475V3.2959Z" fill="#12F6FC"/>
    <path d="M93.4475 3.2959H92.3475V4.3959H93.4475V3.2959Z" fill="#12F6FC"/>
    <path d="M93.4474 7.68774H92.3474V9.8837H87.9515V10.9796H93.4474V7.68774Z" fill="#12F6FC"/>
    <path d="M93.4474 7.68774H92.3474V9.8837H87.9515V10.9796H93.4474V7.68774Z" fill="#12F6FC"/>
    <path d="M93.4475 14.2756H92.3475V17.5716H93.4475V14.2756Z" fill="#12F6FC"/>
    <path d="M93.4475 14.2756H92.3475V17.5716H93.4475V14.2756Z" fill="#12F6FC"/>
    <path d="M84.6515 6.58795H86.8515V4.392H89.0474V2.19604H91.2474V1.1001H87.9515V3.29605H85.7515V5.492H83.5515V17.5718H84.6515V6.58795Z" fill="#21EAB0"/>
    <path d="M84.6515 6.58795H86.8515V4.392H89.0474V2.19604H91.2474V1.1001H87.9515V3.29605H85.7515V5.492H83.5515V17.5718H84.6515V6.58795Z" fill="#21EAB0"/>
    <path d="M84.6515 5.49194H83.5515V6.59195H84.6515V5.49194Z" fill="#85F9FF"/>
    <path d="M84.6515 5.49194H83.5515V6.59195H84.6515V5.49194Z" fill="#85F9FF"/>
    <path d="M86.8515 3.2959H85.7515V4.3959H86.8515V3.2959Z" fill="#85F9FF"/>
    <path d="M86.8515 3.2959H85.7515V4.3959H86.8515V3.2959Z" fill="#85F9FF"/>
    <path d="M89.0515 1.1001H87.9515V2.2001H89.0515V1.1001Z" fill="#85F9FF"/>
    <path d="M89.0515 1.1001H87.9515V2.2001H89.0515V1.1001Z" fill="#85F9FF"/>
    <path d="M93.4475 9.88379H92.3475V10.9838H93.4475V9.88379Z" fill="#85F9FF"/>
    <path d="M93.4475 9.88379H92.3475V10.9838H93.4475V9.88379Z" fill="#85F9FF"/>
    <path d="M97.3279 18.8747H102.824V12.2868H108.32V6.79489H102.824V5.69488H110.52V0.207031H97.3279V18.8747Z" fill="#181C2E"/>
    <path d="M97.3279 18.8747H102.824V12.2868H108.32V6.79489H102.824V5.69488H110.52V0.207031H97.3279V18.8747Z" fill="#181C2E"/>
    <path d="M98.4279 17.7747H101.724V11.1868H107.22V7.89084H101.724V4.59894H109.42V1.30298H98.4279V17.7747Z" fill="#F1EDFC"/>
    <path d="M98.4279 17.7747H101.724V11.1868H107.22V7.89084H101.724V4.59894H109.42V1.30298H98.4279V17.7747Z" fill="#F1EDFC"/>
    <path d="M99.5279 2.40298H109.42V1.30298H98.4279V17.7787H99.5279V2.40298Z" fill="#B712FC"/>
    <path d="M99.5279 2.40298H109.42V1.30298H98.4279V17.7787H99.5279V2.40298Z" fill="#B712FC"/>
    <path d="M107.22 7.89087H102.824V8.99088H107.22V7.89087Z" fill="#12F6FC"/>
    <path d="M107.22 7.89087H102.824V8.99088H107.22V7.89087Z" fill="#12F6FC"/>
    <path d="M99.5279 1.30298H98.4279V2.40298H99.5279V1.30298Z" fill="white"/>
    <path d="M99.5279 1.30298H98.4279V2.40298H99.5279V1.30298Z" fill="white"/>
    <path d="M110.431 5.69488H114.827V18.8747H120.322V5.69488H124.718V0.207031H110.431V5.69488Z" fill="#181C2E"/>
    <path d="M110.431 5.69488H114.827V18.8747H120.322V5.69488H124.718V0.207031H110.431V5.69488Z" fill="#181C2E"/>
    <path d="M111.531 4.59894H115.926V17.7787H119.222V4.59894H123.622V1.30298H111.531V4.59894Z" fill="#F1EDFC"/>
    <path d="M111.531 4.59894H115.926V17.7787H119.222V4.59894H123.622V1.30298H111.531V4.59894Z" fill="#F1EDFC"/>
    <path d="M112.626 2.40298H123.622V1.30298H111.531V4.59894H112.626V2.40298Z" fill="#12F6FC"/>
    <path d="M112.626 2.40298H123.622V1.30298H111.531V4.59894H112.626V2.40298Z" fill="#12F6FC"/>
    <path d="M117.027 5.69482H115.927V17.7787H117.027V5.69482Z" fill="#6021EA"/>
    <path d="M117.027 5.69482H115.927V17.7787H117.027V5.69482Z" fill="#6021EA"/>
    <path d="M112.631 1.30298H111.531V2.40298H112.631V1.30298Z" fill="white"/>
    <path d="M112.631 1.30298H111.531V2.40298H112.631V1.30298Z" fill="white"/>
    <path d="M124.857 19.0208H138.053V13.5289H130.352V12.433H135.848V6.93698H130.352V5.84103H138.048V0.349121H124.857V19.0208Z" fill="#181C2E"/>
    <path d="M124.857 19.0208H138.053V13.5289H130.352V12.433H135.848V6.93698H130.352V5.84103H138.048V0.349121H124.857V19.0208Z" fill="#181C2E"/>
    <path d="M125.956 17.9208H136.952V14.6289H129.257V11.3329H134.752V8.03699H129.257V4.74103H136.948V1.44507H125.956V17.9208Z" fill="#F1EDFC"/>
    <path d="M125.956 17.9208H136.952V14.6289H129.257V11.3329H134.752V8.03699H129.257V4.74103H136.948V1.44507H125.956V17.9208Z" fill="#F1EDFC"/>
    <path d="M127.056 2.54507H136.952V1.44507H125.956V17.9208H127.056V2.54507Z" fill="#12F6FC"/>
    <path d="M127.056 2.54507H136.952V1.44507H125.956V17.9208H127.056V2.54507Z" fill="#12F6FC"/>
    <path d="M134.748 8.03687H130.352V9.13687H134.748V8.03687Z" fill="#B712FC"/>
    <path d="M134.748 8.03687H130.352V9.13687H134.748V8.03687Z" fill="#B712FC"/>
    <path d="M136.948 14.6289H130.352V15.7289H136.948V14.6289Z" fill="#12F6FC"/>
    <path d="M136.948 14.6289H130.352V15.7289H136.948V14.6289Z" fill="#12F6FC"/>
    <path d="M127.056 1.44507H125.956V2.54507H127.056V1.44507Z" fill="white"/>
    <path d="M127.056 1.44507H125.956V2.54507H127.056V1.44507Z" fill="white"/>
    <path d="M150.83 0.288086H138.738V18.9598H144.234V13.4679H147.53V18.9598H153.026V2.48404H150.826V0.288086H150.83ZM147.534 7.97595H144.238V5.78H147.534V7.97595Z" fill="#181C2E"/>
    <path d="M150.83 0.288086H138.738V18.9598H144.234V13.4679H147.53V18.9598H153.026V2.48404H150.826V0.288086H150.83ZM147.534 7.97595H144.238V5.78H147.534V7.97595Z" fill="#181C2E"/>
    <path d="M149.73 1.38818H139.838V17.8639H143.134V12.372H148.63V17.8639H151.926V11.2761H149.726V10.1761H151.926V3.58414H149.726V1.38818H149.73ZM148.63 9.07605H143.134V4.68414H148.63V9.07605Z" fill="#F1EDFC"/>
    <path d="M149.73 1.38818H139.838V17.8639H143.134V12.372H148.63V17.8639H151.926V11.2761H149.726V10.1761H151.926V3.58414H149.726V1.38818H149.73ZM148.63 9.07605H143.134V4.68414H148.63V9.07605Z" fill="#F1EDFC"/>
    <path d="M149.73 5.78003H148.63V9.07599H144.234V10.1719H149.73V5.78003Z" fill="white"/>
    <path d="M149.73 5.78003H148.63V9.07599H144.234V10.1719H149.73V5.78003Z" fill="white"/>
    <path d="M151.93 11.272H150.83V12.372H151.93V11.272Z" fill="#12F6FC"/>
    <path d="M151.93 11.272H150.83V12.372H151.93V11.272Z" fill="#12F6FC"/>
    <path d="M151.93 3.58423H150.83V4.68423H151.93V3.58423Z" fill="#12F6FC"/>
    <path d="M151.93 3.58423H150.83V4.68423H151.93V3.58423Z" fill="#12F6FC"/>
    <path d="M140.938 2.48413H149.73V1.38818H139.838V17.8639H140.938V2.48413Z" fill="#6021EA"/>
    <path d="M140.938 2.48413H149.73V1.38818H139.838V17.8639H140.938V2.48413Z" fill="#6021EA"/>
    <path d="M149.73 13.468H148.63V17.8599H149.73V13.468Z" fill="#12F6FC"/>
    <path d="M149.73 13.468H148.63V17.8599H149.73V13.468Z" fill="#12F6FC"/>
    <path d="M140.938 1.38818H139.838V2.48819H140.938V1.38818Z" fill="#85F9FF"/>
    <path d="M140.938 1.38818H139.838V2.48819H140.938V1.38818Z" fill="#85F9FF"/>
    <path d="M149.73 9.07617H148.63V10.1762H149.73V9.07617Z" fill="#85F9FF"/>
    <path d="M149.73 9.07617H148.63V10.1762H149.73V9.07617Z" fill="#85F9FF"/>
    <path d="M167.704 2.2691V7.76102H162.204V5.56506H158.908V9.58354H153.412V2.26505H155.612V0.0690918H165.504V2.2691H167.704Z" fill="#181C2E"/>
    <path d="M167.704 2.2691V9.94885H162.204V5.56506H158.908V11.8241H153.412V2.26505H155.612V0.0690918H165.504V2.2691H167.704Z" fill="#181C2E"/>
    <path d="M166.6 3.36905V6.66095H163.304V4.465H157.808V9.58348H154.512V3.36905H156.708V1.1731H164.404V3.36905H166.6Z" fill="#F1EDFC"/>
    <path d="M166.6 3.36905V6.66095H163.304V4.465H157.808V9.58348H154.512V3.36905H156.708V1.1731H164.404V3.36905H166.6Z" fill="#F1EDFC"/>
    <path d="M164.404 5.56494H163.304V6.66495H164.404V5.56494Z" fill="#12F6FC"/>
    <path d="M164.404 5.56494H163.304V6.66495H164.404V5.56494Z" fill="#12F6FC"/>
    <path d="M166.604 3.3689H165.504V4.4689H166.604V3.3689Z" fill="white"/>
    <path d="M166.604 3.3689H165.504V4.4689H166.604V3.3689Z" fill="white"/>
    <path d="M164.404 1.1731V2.26904H157.808V4.465H155.612V9.58348H154.512V3.36905H156.708V1.1731H164.404Z" fill="#6021EA"/>
    <path d="M164.404 1.1731V2.26904H157.808V4.465H155.612V9.58348H154.512V3.36905H156.708V1.1731H164.404Z" fill="#6021EA"/>
    <path d="M155.612 3.3689H154.512V4.4689H155.612V3.3689Z" fill="#85F9FF"/>
    <path d="M155.612 3.3689H154.512V4.4689H155.612V3.3689Z" fill="#85F9FF"/>
    <path d="M157.808 1.1731H156.708V2.2731H157.808V1.1731Z" fill="#85F9FF"/>
    <path d="M157.808 1.1731H156.708V2.2731H157.808V1.1731Z" fill="#85F9FF"/>
    <path d="M166.604 11.0447V8.84473H154.512V11.0447H166.604Z" fill="#F1EDFC"/>
    <path d="M166.604 8.84879V7.74878L157.808 7.74878V8.84879H166.604Z" fill="#6021EA"/>
    <path d="M166.6 7.74463H165.5V15.4487H166.6V7.74463Z" fill="#6021EA"/>
    <path d="M155.612 7.74463H154.512V11.0487H155.612V7.74463Z" fill="#6021EA"/>
    </g>
    <defs>
    <clipPath id="clip0_25_1690">
    <rect width="170.18" height="21.3588" fill="white" transform="translate(0.819702)"/>
    </clipPath>
    </defs>
    </svg>
    