<svg width="48" height="48" viewBox="0 0 48 48" fill="none" xmlns="http://www.w3.org/2000/svg">
    <rect x="48" y="48" width="48" height="48" rx="24" transform="rotate(-180 48 48)" fill="#0F0F0F"/>
    <path d="M21.5689 17.1789C21.7589 17.1789 21.9489 17.2489 22.0989 17.3989C22.3889 17.6889 22.3889 18.1689 22.0989 18.4589L16.5589 23.9989L22.0989 29.5389C22.3889 29.8289 22.3889 30.3089 22.0989 30.5989C21.8089 30.8889 21.3289 30.8889 21.0389 30.5989L14.9689 24.5289C14.6789 24.2389 14.6789 23.7589 14.9689 23.4689L21.0389 17.3989C21.1889 17.2489 21.3789 17.1789 21.5689 17.1789Z" fill="white"/>
    <path d="M15.67 23.252L32.5 23.252C32.91 23.252 33.25 23.592 33.25 24.002C33.25 24.412 32.91 24.752 32.5 24.752L15.67 24.752C15.26 24.752 14.92 24.412 14.92 24.002C14.92 23.592 15.26 23.252 15.67 23.252Z" fill="white"/>
    </svg>
    