<svg width="48" height="48" viewBox="0 0 48 48" fill="none" xmlns="http://www.w3.org/2000/svg">
    <rect x="48.0001" y="48" width="48" height="48" rx="24" transform="rotate(-180 48.0001 48)" fill="white"/>
    <rect x="47.5001" y="47.5" width="47" height="47" rx="23.5" transform="rotate(-180 47.5001 47.5)" stroke="#2E58EE" stroke-opacity="0.16"/>
    <path d="M26.4312 17.1789C26.2412 17.1789 26.0512 17.2489 25.9012 17.3989C25.6112 17.6889 25.6112 18.1689 25.9012 18.4589L31.4412 23.9989L25.9012 29.5389C25.6112 29.8289 25.6112 30.3089 25.9012 30.5989C26.1912 30.8889 26.6712 30.8889 26.9612 30.5989L33.0312 24.5289C33.3212 24.2389 33.3212 23.7589 33.0312 23.4689L26.9612 17.3989C26.8112 17.2489 26.6212 17.1789 26.4312 17.1789Z" fill="#0F0F0F"/>
    <path d="M32.3301 23.252L15.5001 23.252C15.0901 23.252 14.7501 23.592 14.7501 24.002C14.7501 24.412 15.0901 24.752 15.5001 24.752L32.3301 24.752C32.7401 24.752 33.0801 24.412 33.0801 24.002C33.0801 23.592 32.7401 23.252 32.3301 23.252Z" fill="#0F0F0F"/>
    </svg>
    