<svg width="140" height="43" viewBox="0 0 140 43" fill="none" xmlns="http://www.w3.org/2000/svg">
    <g clip-path="url(#clip0_25_1281)">
    <g opacity="0.15">
    <path d="M31.3224 32.5898C29.2048 37.7677 21.4457 41.937 15.866 42.0336C15.7964 42.0336 15.7307 42.0336 15.665 42.0336C15.5994 42.0336 15.5298 42.0336 15.4641 42.0336C9.88049 41.937 2.12139 37.7677 0.0038681 32.5898L0.0966064 31.0325L0.177752 29.6492L0.266627 28.1847L0.340044 26.9521L0.40187 25.9203L0.699405 21.0284V21.0129L1.96683 0H29.3555L30.623 21.0129V21.0284L30.9205 25.9203L30.9823 26.9521L31.0557 28.1847L31.1446 29.6492L31.2257 31.0287L31.3185 32.5859L31.3224 32.5898Z" fill="white"/>
    </g>
    <g opacity="0.41">
    <path d="M15.6611 37.791C12.0289 37.791 6.29071 35.0359 4.30457 31.7244L5.96226 4.24683H25.36L27.0177 31.7283C25.0316 35.0398 19.2934 37.7949 15.6611 37.7949V37.791Z" fill="white"/>
    </g>
    <g opacity="0.41">
    <path d="M15.6611 35.6698C12.9679 35.6698 8.35026 33.5871 6.46844 31.1334L7.96385 6.36841H23.3661L24.8615 31.1334C22.9759 33.5871 18.3583 35.6698 15.6689 35.6698H15.6611Z" fill="white"/>
    </g>
    <g opacity="0.3">
    <path d="M27.6437 32.5898C26.0015 37.8333 19.9426 42.0375 15.6611 42.0375C11.3797 42.0375 5.32082 37.8333 3.67858 32.5898L5.18171 0H26.1406L27.6437 32.5898Z" fill="white"/>
    </g>
    <g opacity="0.15">
    <path d="M31.2257 31.0286C30.2635 32.8795 28.3044 34.572 25.9551 35.909C22.7633 37.7174 18.8374 38.8689 15.6611 38.8689C12.4848 38.8689 8.56278 37.7212 5.36717 35.909C3.01394 34.5759 1.06257 32.8834 0.0926819 31.0325L0.173828 29.6491L0.262702 28.1847L0.33612 26.952L0.397945 25.9203L0.695481 21.0283V21.0129L1.96677 3.17236H29.3555L30.6229 21.0129V21.0283L30.9204 25.9203L30.9823 26.952L31.0557 28.1847L31.1445 29.6491L31.2257 31.0286Z" fill="white"/>
    </g>
    <g opacity="0.1">
    <path d="M31.1446 29.6494C30.3988 30.7932 29.1352 31.8597 27.5819 32.7909C26.7202 33.3087 25.7657 33.7801 24.7649 34.1975C21.8205 35.4224 18.4549 36.1759 15.665 36.1759C12.8751 36.1759 9.50176 35.4185 6.56119 34.1936C5.56039 33.7763 4.60982 33.3049 3.75199 32.7909C2.19476 31.8636 0.931203 30.7932 0.185432 29.6494L0.274307 28.1849L0.347724 26.9523L0.40955 25.9206L0.707085 21.0286V21.0132L1.96678 5.86206H29.3555L30.6229 21.0132V21.0286L30.9204 25.9206L30.9823 26.9523L31.0557 28.1849L31.1446 29.6494Z" fill="white"/>
    </g>
    <g opacity="0.2">
    <path d="M31.0557 28.185C30.2983 29.0853 29.0618 29.9277 27.5548 30.658C27.3616 30.7507 27.1684 30.8435 26.9675 30.9323C26.0555 31.3419 25.0625 31.7129 24.0269 32.0336C21.2718 32.8914 18.223 33.4092 15.665 33.4092C13.1031 33.4092 10.0504 32.8876 7.29535 32.0297C6.25977 31.709 5.2667 31.3381 4.35477 30.9285C4.1577 30.8396 3.96063 30.7507 3.77129 30.6541C2.2643 29.9199 1.02779 29.0814 0.270424 28.1811L0.343842 26.9485L0.405667 25.9167L0.703202 21.0248V21.0093L1.97063 8.61719H29.3593L30.6268 21.0093V21.0248L30.9243 25.9167L30.9861 26.9485L31.0595 28.1811L31.0557 28.185Z" fill="white"/>
    </g>
    <g opacity="0.2">
    <path d="M30.9823 26.9523C30.2056 27.6749 28.9691 28.3473 27.4775 28.9346C27.2766 29.0157 27.0718 29.093 26.8631 29.1664C26.2024 29.4022 25.503 29.6263 24.7765 29.8272C21.8321 30.6464 18.4587 31.1526 15.6611 31.1526C12.8635 31.1526 9.48631 30.6464 6.54573 29.8272C5.81928 29.6224 5.11988 29.4022 4.45912 29.1626C4.25046 29.0892 4.04566 29.0119 3.84859 28.9307C2.35319 28.3434 1.11668 27.671 0.339996 26.9485L0.401822 25.9167L0.699357 21.0248V21.0093L1.96678 10.8777H29.3555L30.6229 21.0093V21.0248L30.9204 25.9167L30.9823 26.9485V26.9523Z" fill="white"/>
    </g>
    <g opacity="0.2">
    <path d="M30.9166 25.9163C30.1244 26.4998 28.8918 27.0408 27.408 27.5122C27.2032 27.5818 26.9868 27.6436 26.7743 27.7054C26.1096 27.8986 25.4064 28.0802 24.6799 28.2425C21.7587 28.8994 18.4278 29.3052 15.6611 29.3052C12.8944 29.3052 9.5636 28.8994 6.64234 28.2425C5.91203 28.0764 5.20877 27.8986 4.54801 27.7054C4.33162 27.6436 4.12296 27.5779 3.91429 27.5122C2.43048 27.0408 1.19784 26.496 0.401833 25.9125L0.699368 21.0205V21.0051L1.96679 12.7205H29.3555L30.6229 21.0051V21.0205L30.9204 25.9125L30.9166 25.9163Z" fill="white"/>
    </g>
    <path d="M47.8607 9.21221C49.3677 8.98423 51.1645 8.81421 53.1274 8.81421C56.6863 8.81421 59.2211 9.64113 60.8981 11.2061C62.6061 12.771 63.603 14.9929 63.603 18.0958C63.603 21.1986 62.637 23.7876 60.8402 25.5535C59.0472 27.3464 56.0873 28.3163 52.3585 28.3163C50.5926 28.3163 49.1126 28.2313 47.8607 28.0883V9.21221ZM50.3376 26.1794C50.9635 26.2915 51.8755 26.3224 52.8415 26.3224C58.1353 26.3224 61.0102 23.3625 61.0102 18.1808C61.0372 13.6559 58.4753 10.781 53.2395 10.781C51.9566 10.781 50.9906 10.8931 50.3376 11.0361V26.1794Z" fill="white"/>
    <path d="M66.8218 9.21221C68.0738 8.95718 69.8667 8.81421 71.5746 8.81421C74.2216 8.81421 75.9295 9.29722 77.1274 10.3792C78.0934 11.2331 78.6343 12.5431 78.6343 14.023C78.6343 16.5579 77.0385 18.2349 75.0176 18.9188V19.0038C76.4975 19.5178 77.3785 20.8818 77.8345 22.8756C78.4605 25.5496 78.9164 27.4005 79.3144 28.1424H76.7525C76.4395 27.6014 76.0106 25.9515 75.4697 23.5596C74.9016 20.9127 73.8777 19.9158 71.6249 19.8307H69.291V28.1424H66.8141V9.21221H66.8218ZM69.2948 17.9528H71.8297C74.4766 17.9528 76.1575 16.4999 76.1575 14.309C76.1575 11.8321 74.3645 10.7501 71.7447 10.7231C70.5507 10.7231 69.6967 10.8351 69.2948 10.9511V17.9528Z" fill="white"/>
    <path d="M81.8493 25.2673C82.5603 25.7233 84.2103 26.4343 85.9491 26.4343C89.1641 26.4343 90.161 24.3863 90.1339 22.8484C90.1069 20.2594 87.773 19.1466 85.3502 19.1466H83.9553V17.2686H85.3502C87.1702 17.2686 89.477 16.3297 89.477 14.1387C89.477 12.6588 88.5381 11.3488 86.2312 11.3488C84.7513 11.3488 83.3293 12.0019 82.5294 12.5738L81.8764 10.7538C82.8424 10.0428 84.7242 9.33179 86.7142 9.33179C90.3581 9.33179 92.008 11.4957 92.008 13.7446C92.008 15.6534 90.8681 17.2725 88.5922 18.0994V18.1574C90.8681 18.6133 92.719 20.3213 92.719 22.9102C92.719 25.8701 90.4122 28.4629 85.9723 28.4629C83.8934 28.4629 82.0734 27.8099 81.1615 27.211L81.8455 25.275L81.8493 25.2673Z" fill="white"/>
    <path d="M101.031 11.1828C101.29 11.1828 101.529 11.2253 101.749 11.3142C101.97 11.403 102.163 11.5267 102.325 11.6851C102.487 11.8435 102.615 12.0329 102.708 12.2454C102.8 12.4579 102.847 12.6898 102.847 12.9371C102.847 13.1844 102.8 13.4201 102.708 13.6287C102.615 13.8374 102.487 14.0268 102.325 14.1852C102.163 14.3475 101.97 14.4711 101.749 14.56C101.529 14.6489 101.29 14.6914 101.031 14.6914H99.6203V11.175H101.038L101.031 11.1828ZM101.042 14.3513C101.239 14.3513 101.421 14.3166 101.591 14.247C101.757 14.1774 101.904 14.077 102.032 13.9495C102.159 13.822 102.259 13.6713 102.329 13.5012C102.402 13.3312 102.437 13.1457 102.437 12.9487C102.437 12.7516 102.399 12.5623 102.325 12.3922C102.252 12.2222 102.151 12.0715 102.024 11.944C101.896 11.8165 101.746 11.716 101.576 11.6465C101.406 11.5769 101.22 11.5421 101.023 11.5421H100.014V14.3591H101.038L101.042 14.3513Z" fill="white"/>
    <path d="M103.678 11.0476C103.751 11.0476 103.813 11.0708 103.859 11.121C103.909 11.1713 103.933 11.2292 103.933 11.3026C103.933 11.3761 103.909 11.434 103.859 11.4842C103.809 11.5345 103.751 11.5615 103.678 11.5615C103.604 11.5615 103.546 11.5345 103.496 11.4842C103.446 11.434 103.419 11.3722 103.419 11.3026C103.419 11.2331 103.442 11.1674 103.496 11.121C103.546 11.0747 103.608 11.0476 103.678 11.0476ZM103.488 12.0561H103.875V14.6992H103.488V12.0561Z" fill="white"/>
    <path d="M105.691 12.0481C105.927 12.0481 106.127 12.0944 106.297 12.2026C106.468 12.3069 106.603 12.4538 106.695 12.6431C106.792 12.8325 106.838 13.0566 106.835 13.3155C106.835 13.5744 106.792 13.7985 106.699 13.9878C106.607 14.1772 106.475 14.3279 106.301 14.4283C106.127 14.5288 105.93 14.5829 105.699 14.5829C105.467 14.5829 105.25 14.5288 105.073 14.4206C104.895 14.3124 104.752 14.1617 104.648 13.9724C104.547 13.7792 104.493 13.5589 104.493 13.3116C104.493 13.0643 104.543 12.8441 104.644 12.6547C104.744 12.4654 104.883 12.3147 105.065 12.2065C105.246 12.0983 105.455 12.0442 105.687 12.0442L105.691 12.0481ZM107.066 14.4206C107.066 14.6795 107.012 14.8998 106.9 15.0891C106.788 15.2784 106.638 15.4214 106.437 15.5257C106.24 15.6301 106.004 15.6803 105.733 15.6803C105.525 15.6803 105.331 15.6455 105.158 15.576C104.98 15.5064 104.81 15.4098 104.651 15.2862L104.833 15.0157C104.964 15.1277 105.1 15.2127 105.246 15.2707C105.393 15.3287 105.548 15.3596 105.722 15.3596C105.915 15.3596 106.085 15.3209 106.228 15.2437C106.371 15.1664 106.479 15.0582 106.56 14.9191C106.638 14.78 106.68 14.6138 106.68 14.4245V12.0481H107.07V14.4129L107.066 14.4206ZM105.768 12.3533C105.594 12.3533 105.44 12.3958 105.301 12.4808C105.161 12.5658 105.057 12.6779 104.98 12.8247C104.903 12.9716 104.864 13.1377 104.86 13.3232C104.86 13.5087 104.903 13.671 104.98 13.8178C105.057 13.9646 105.161 14.0767 105.301 14.1578C105.436 14.239 105.594 14.2815 105.772 14.2815C105.95 14.2815 106.104 14.239 106.243 14.1578C106.379 14.0767 106.487 13.9608 106.564 13.8178C106.641 13.671 106.68 13.5087 106.68 13.3232C106.68 13.1377 106.641 12.9638 106.564 12.8209C106.487 12.6779 106.383 12.562 106.243 12.4808C106.104 12.3997 105.95 12.3533 105.772 12.3533H105.768Z" fill="white"/>
    <path d="M108.067 11.0476C108.141 11.0476 108.202 11.0708 108.249 11.121C108.299 11.1713 108.322 11.2292 108.322 11.3026C108.322 11.3761 108.299 11.434 108.249 11.4842C108.199 11.5345 108.141 11.5615 108.067 11.5615C107.994 11.5615 107.936 11.5345 107.886 11.4842C107.835 11.434 107.808 11.3722 107.808 11.3026C107.808 11.2331 107.832 11.1674 107.886 11.121C107.936 11.0747 107.998 11.0476 108.067 11.0476ZM107.874 12.0561H108.26V14.6992H107.874V12.0561Z" fill="white"/>
    <path d="M108.801 12.1371H110.409V12.4269H108.801V12.1371ZM109.57 13.9068C109.57 14.073 109.601 14.1928 109.659 14.2662C109.721 14.3396 109.806 14.3744 109.922 14.3744C109.988 14.3744 110.057 14.3589 110.127 14.3357C110.196 14.3126 110.27 14.2778 110.343 14.2314L110.455 14.5174C110.366 14.5792 110.27 14.6255 110.165 14.6603C110.065 14.6951 109.961 14.7144 109.856 14.7144C109.725 14.7144 109.609 14.6874 109.509 14.6371C109.408 14.5869 109.327 14.5058 109.269 14.3937C109.211 14.2816 109.18 14.1425 109.18 13.9648V11.4531H109.566V13.903L109.57 13.9068Z" fill="white"/>
    <path d="M111.819 13.4584C111.599 13.4584 111.429 13.4971 111.317 13.5705C111.205 13.6439 111.147 13.756 111.147 13.9067C111.147 14.0574 111.201 14.1772 111.309 14.2699C111.417 14.3626 111.568 14.409 111.754 14.409C111.908 14.409 112.047 14.382 112.171 14.3317C112.295 14.2815 112.399 14.2081 112.48 14.1153C112.561 14.0226 112.619 13.9067 112.65 13.7753L112.751 14.0922C112.658 14.3047 112.519 14.4592 112.333 14.5636C112.148 14.6679 111.931 14.7181 111.68 14.7181C111.499 14.7181 111.34 14.6834 111.205 14.6138C111.07 14.5443 110.965 14.4477 110.892 14.3279C110.819 14.2081 110.78 14.0728 110.78 13.9221C110.78 13.6942 110.869 13.5125 111.043 13.3812C111.217 13.2459 111.46 13.1802 111.769 13.1764H112.708V13.4662H111.819V13.4584ZM112.639 12.9909C112.639 12.79 112.581 12.6354 112.461 12.5233C112.341 12.4113 112.163 12.3572 111.931 12.3572C111.785 12.3572 111.642 12.3842 111.506 12.4383C111.371 12.4924 111.232 12.5658 111.093 12.6624L110.927 12.4074C111.039 12.3301 111.151 12.2644 111.259 12.2103C111.367 12.1562 111.479 12.1137 111.599 12.0867C111.719 12.0596 111.854 12.0442 112.005 12.0442C112.333 12.0442 112.584 12.1253 112.758 12.2876C112.932 12.4499 113.021 12.6702 113.025 12.9523V14.695H112.646L112.635 12.987L112.639 12.9909Z" fill="white"/>
    <path d="M113.836 10.9702H114.227V14.6991H113.836V10.9702Z" fill="white"/>
    <path d="M117.816 11.1826C118.257 11.1826 118.601 11.2869 118.84 11.4917C119.08 11.6965 119.204 11.9863 119.204 12.3573C119.204 12.7283 119.084 13.0412 118.84 13.2538C118.601 13.4663 118.257 13.5745 117.816 13.5745H116.881V14.6989H116.479V11.1826H117.816ZM117.816 13.2267C118.133 13.2267 118.381 13.1533 118.558 13.0065C118.736 12.8596 118.821 12.6471 118.821 12.365C118.821 12.083 118.732 11.882 118.558 11.7429C118.381 11.6038 118.137 11.5304 117.816 11.5304H116.881V13.2229H117.816V13.2267ZM117.936 13.4083H118.342L119.235 14.6989H118.779L117.936 13.4083Z" fill="white"/>
    <path d="M121.877 13.223C121.87 13.0453 121.831 12.8907 121.754 12.7632C121.677 12.6357 121.576 12.5352 121.449 12.4657C121.321 12.3961 121.166 12.3613 120.993 12.3613C120.807 12.3613 120.645 12.4038 120.51 12.485C120.37 12.57 120.262 12.6859 120.181 12.8366C120.1 12.9873 120.061 13.1651 120.061 13.366C120.061 13.5669 120.104 13.7563 120.185 13.9108C120.266 14.0654 120.382 14.189 120.529 14.2741C120.676 14.3629 120.842 14.4054 121.031 14.4054C121.367 14.4054 121.638 14.2934 121.85 14.0654L122.067 14.2818C121.939 14.4209 121.785 14.5252 121.603 14.6025C121.422 14.6798 121.224 14.7146 121.004 14.7146C120.741 14.7146 120.513 14.6566 120.313 14.5445C120.112 14.4325 119.957 14.2741 119.849 14.0731C119.741 13.8722 119.683 13.6403 119.683 13.3815C119.683 13.1226 119.737 12.8907 119.849 12.6898C119.961 12.4888 120.115 12.3343 120.313 12.2222C120.513 12.1102 120.738 12.0522 120.993 12.0483C121.279 12.0483 121.514 12.1102 121.7 12.23C121.885 12.3497 122.024 12.5236 122.113 12.7439C122.202 12.9641 122.237 13.2192 122.221 13.5167H119.984V13.2269H121.874L121.877 13.223Z" fill="white"/>
    <path d="M124.281 12.5585C124.177 12.4967 124.061 12.4464 123.933 12.4078C123.806 12.3691 123.682 12.3537 123.562 12.3537C123.415 12.3537 123.292 12.3846 123.191 12.4426C123.091 12.5005 123.041 12.5971 123.041 12.7246C123.041 12.8251 123.075 12.9062 123.149 12.9642C123.222 13.0222 123.311 13.0724 123.423 13.111C123.535 13.1497 123.655 13.1883 123.779 13.2231C123.902 13.2617 124.022 13.3042 124.134 13.3622C124.246 13.4163 124.339 13.4936 124.408 13.5902C124.478 13.6868 124.513 13.8143 124.513 13.9727C124.513 14.1428 124.466 14.2819 124.374 14.3901C124.281 14.4983 124.161 14.5794 124.018 14.6296C123.871 14.6799 123.713 14.7069 123.543 14.7069C123.354 14.7069 123.172 14.676 122.99 14.6103C122.809 14.5446 122.654 14.4557 122.527 14.3398L122.677 14.0732C122.789 14.1775 122.929 14.2587 123.087 14.3166C123.245 14.3746 123.404 14.4055 123.558 14.4055C123.663 14.4055 123.755 14.3901 123.84 14.363C123.925 14.336 123.995 14.2896 124.045 14.2316C124.095 14.1737 124.123 14.1002 124.123 14.0075C124.123 13.8955 124.092 13.8104 124.026 13.7486C123.956 13.6868 123.868 13.6366 123.755 13.5941C123.643 13.5554 123.524 13.5168 123.4 13.4781C123.272 13.4434 123.157 13.397 123.044 13.339C122.932 13.2849 122.84 13.2115 122.77 13.1188C122.701 13.026 122.666 12.9024 122.666 12.744C122.666 12.5855 122.708 12.4464 122.797 12.3421C122.886 12.2378 122.998 12.1605 123.137 12.1102C123.276 12.06 123.427 12.033 123.585 12.033C123.744 12.033 123.895 12.0523 124.041 12.0948C124.188 12.1373 124.32 12.1953 124.428 12.2687L124.277 12.5507L124.281 12.5585Z" fill="white"/>
    <path d="M125.297 11.0476C125.371 11.0476 125.432 11.0708 125.479 11.121C125.529 11.1713 125.552 11.2292 125.552 11.3026C125.552 11.3761 125.529 11.434 125.479 11.4842C125.429 11.5345 125.371 11.5615 125.297 11.5615C125.224 11.5615 125.166 11.5345 125.116 11.4842C125.065 11.434 125.038 11.3722 125.038 11.3026C125.038 11.2331 125.062 11.1674 125.116 11.121C125.166 11.0747 125.228 11.0476 125.297 11.0476ZM125.104 12.0561H125.49V14.6992H125.104V12.0561Z" fill="white"/>
    <path d="M126.344 10.9702H126.735V14.6991H126.344V10.9702Z" fill="white"/>
    <path d="M127.778 11.0476C127.851 11.0476 127.913 11.0708 127.96 11.121C128.01 11.1713 128.033 11.2292 128.033 11.3026C128.033 11.3761 128.01 11.434 127.96 11.4842C127.909 11.5345 127.851 11.5615 127.778 11.5615C127.705 11.5615 127.647 11.5345 127.596 11.4842C127.546 11.434 127.519 11.3722 127.519 11.3026C127.519 11.2331 127.542 11.1674 127.596 11.121C127.647 11.0747 127.708 11.0476 127.778 11.0476ZM127.589 12.0561H127.975V14.6992H127.589V12.0561Z" fill="white"/>
    <path d="M130.788 13.223C130.78 13.0453 130.742 12.8907 130.664 12.7632C130.587 12.6357 130.487 12.5352 130.359 12.4657C130.232 12.3961 130.077 12.3613 129.903 12.3613C129.718 12.3613 129.555 12.4038 129.42 12.485C129.281 12.57 129.173 12.6859 129.092 12.8366C129.011 12.9873 128.972 13.1651 128.972 13.366C128.972 13.5669 129.014 13.7563 129.096 13.9108C129.177 14.0654 129.293 14.189 129.44 14.2741C129.586 14.3629 129.753 14.4054 129.942 14.4054C130.278 14.4054 130.549 14.2934 130.761 14.0654L130.977 14.2818C130.85 14.4209 130.695 14.5252 130.514 14.6025C130.332 14.6798 130.135 14.7146 129.915 14.7146C129.652 14.7146 129.424 14.6566 129.223 14.5445C129.022 14.4325 128.868 14.2741 128.759 14.0731C128.651 13.8722 128.593 13.6403 128.593 13.3815C128.593 13.1226 128.647 12.8907 128.759 12.6898C128.871 12.4888 129.026 12.3343 129.223 12.2222C129.424 12.1102 129.648 12.0522 129.903 12.0483C130.189 12.0483 130.425 12.1102 130.61 12.23C130.796 12.3497 130.935 12.5236 131.024 12.7439C131.113 12.9641 131.147 13.2192 131.132 13.5167H128.895V13.2269H130.784L130.788 13.223Z" fill="white"/>
    <path d="M131.754 12.0558H132.144V14.6988H131.754V12.0558ZM133.783 13.1648C133.783 12.9252 133.717 12.7359 133.586 12.6006C133.454 12.4654 133.269 12.3958 133.037 12.3958C132.755 12.3958 132.535 12.4924 132.38 12.6779C132.222 12.8634 132.144 13.103 132.144 13.4005H132.009C132.009 13.0914 132.055 12.8402 132.148 12.6393C132.241 12.4383 132.376 12.2915 132.554 12.191C132.732 12.0906 132.936 12.0442 133.176 12.0442C133.389 12.0442 133.566 12.0867 133.717 12.1717C133.868 12.2567 133.984 12.3726 134.061 12.5272C134.138 12.6779 134.181 12.8634 134.181 13.0759V14.6988H133.79V13.1686L133.783 13.1648Z" fill="white"/>
    <path d="M136.862 12.6895C136.766 12.5929 136.65 12.5156 136.519 12.4615C136.387 12.4074 136.24 12.3804 136.078 12.3804C135.896 12.3804 135.734 12.4229 135.595 12.5079C135.452 12.5929 135.34 12.7088 135.263 12.8595C135.182 13.0102 135.143 13.1841 135.143 13.3812C135.143 13.5782 135.182 13.7521 135.263 13.9067C135.344 14.0612 135.456 14.1772 135.595 14.2622C135.738 14.3472 135.9 14.3897 136.078 14.3897C136.248 14.3897 136.406 14.3588 136.546 14.3008C136.685 14.2429 136.804 14.154 136.901 14.0419L137.121 14.2622C137.005 14.4013 136.855 14.5133 136.673 14.5906C136.491 14.6679 136.287 14.7104 136.059 14.7104C135.804 14.7104 135.58 14.6525 135.382 14.5404C135.185 14.4283 135.031 14.2699 134.919 14.069C134.807 13.868 134.749 13.6362 134.749 13.3773C134.749 13.1184 134.807 12.8866 134.919 12.6856C135.031 12.4847 135.185 12.3301 135.382 12.2142C135.58 12.1022 135.808 12.0442 136.059 12.0442C136.271 12.0442 136.468 12.079 136.638 12.1485C136.808 12.2181 136.959 12.3108 137.079 12.4306L136.859 12.6856L136.862 12.6895Z" fill="white"/>
    <path d="M139.648 13.223C139.641 13.0453 139.602 12.8907 139.525 12.7632C139.447 12.6357 139.347 12.5352 139.22 12.4657C139.092 12.3961 138.937 12.3613 138.764 12.3613C138.578 12.3613 138.416 12.4038 138.281 12.485C138.141 12.57 138.033 12.6859 137.952 12.8366C137.871 12.9873 137.832 13.1651 137.832 13.366C137.832 13.5669 137.875 13.7563 137.956 13.9108C138.037 14.0654 138.153 14.189 138.3 14.2741C138.447 14.3629 138.613 14.4054 138.802 14.4054C139.138 14.4054 139.409 14.2934 139.621 14.0654L139.838 14.2818C139.71 14.4209 139.556 14.5252 139.374 14.6025C139.192 14.6798 138.995 14.7146 138.775 14.7146C138.512 14.7146 138.284 14.6566 138.083 14.5445C137.883 14.4325 137.728 14.2741 137.62 14.0731C137.512 13.8722 137.454 13.6403 137.454 13.3815C137.454 13.1226 137.508 12.8907 137.62 12.6898C137.732 12.4888 137.886 12.3343 138.083 12.2222C138.284 12.1102 138.509 12.0522 138.764 12.0483C139.049 12.0483 139.285 12.1102 139.471 12.23C139.656 12.3497 139.795 12.5236 139.884 12.7439C139.973 12.9641 140.008 13.2192 139.992 13.5167H137.755V13.2269H139.645L139.648 13.223Z" fill="white"/>
    <path d="M99.1373 17.2109H101.834V17.5626H100.683V20.7273H100.281V17.5626H99.1373V17.2109Z" fill="white"/>
    <path d="M102.317 16.9985H102.708V20.7274H102.317V16.9985ZM104.35 19.1933C104.35 18.9538 104.284 18.7644 104.153 18.6292C104.022 18.4939 103.836 18.4244 103.604 18.4244C103.322 18.4244 103.102 18.521 102.947 18.7065C102.789 18.8919 102.712 19.1315 102.712 19.429H102.576C102.576 19.1199 102.623 18.8688 102.715 18.6678C102.808 18.4669 102.943 18.3201 103.121 18.2196C103.299 18.1191 103.504 18.0728 103.743 18.0728C103.956 18.0728 104.134 18.1153 104.284 18.2003C104.435 18.2853 104.551 18.4012 104.628 18.5558C104.705 18.7065 104.748 18.8919 104.748 19.1045V20.7274H104.358V19.1972L104.35 19.1933Z" fill="white"/>
    <path d="M105.718 17.0754C105.791 17.0754 105.853 17.0986 105.9 17.1489C105.95 17.1991 105.973 17.2571 105.973 17.3305C105.973 17.4039 105.95 17.4618 105.9 17.5121C105.849 17.5623 105.791 17.5894 105.718 17.5894C105.644 17.5894 105.587 17.5623 105.536 17.5121C105.486 17.4618 105.459 17.4 105.459 17.3305C105.459 17.2609 105.482 17.1952 105.536 17.1489C105.587 17.1025 105.648 17.0754 105.718 17.0754ZM105.525 18.084H105.911V20.727H105.525V18.084Z" fill="white"/>
    <path d="M106.757 18.0841H107.148V20.7271H106.757V18.0841ZM108.098 18.4318C107.901 18.4318 107.731 18.4705 107.588 18.5555C107.445 18.6405 107.337 18.7603 107.26 18.911C107.182 19.0617 107.144 19.2433 107.144 19.4442L107.008 19.4288C107.008 19.139 107.051 18.8955 107.14 18.6946C107.229 18.4937 107.352 18.3391 107.519 18.2309C107.681 18.1227 107.878 18.0686 108.102 18.0686V18.4241L108.098 18.4318Z" fill="white"/>
    <path d="M109.563 18.0689C109.806 18.0689 110.019 18.123 110.2 18.235C110.382 18.3471 110.521 18.5017 110.621 18.6987C110.722 18.8997 110.768 19.1315 110.764 19.4059C110.764 19.6764 110.722 19.9121 110.621 20.113C110.521 20.3139 110.382 20.4685 110.204 20.5805C110.026 20.6926 109.814 20.7467 109.57 20.7467C109.327 20.7467 109.099 20.6887 108.906 20.5728C108.712 20.4569 108.562 20.2985 108.457 20.0975C108.353 19.8966 108.295 19.6648 108.295 19.4059C108.295 19.147 108.349 18.9074 108.457 18.7103C108.566 18.5133 108.712 18.3548 108.906 18.2428C109.095 18.1307 109.319 18.0728 109.57 18.0728L109.563 18.0689ZM109.64 18.3896C109.454 18.3896 109.292 18.436 109.149 18.521C109.006 18.606 108.89 18.7296 108.809 18.8842C108.728 19.0388 108.685 19.2127 108.685 19.4097C108.685 19.6068 108.728 19.7807 108.809 19.9352C108.89 20.0859 109.002 20.2057 109.149 20.2946C109.296 20.3835 109.458 20.426 109.64 20.426C109.821 20.426 109.992 20.3835 110.138 20.2946C110.285 20.2057 110.397 20.0859 110.478 19.9352C110.56 19.7845 110.602 19.6068 110.602 19.4097C110.602 19.2127 110.56 19.0388 110.478 18.8842C110.397 18.7296 110.285 18.6099 110.138 18.521C109.992 18.4321 109.829 18.3896 109.64 18.3896ZM110.598 16.9985H110.988V20.7274H110.598V16.9985Z" fill="white"/>
    <path d="M115.826 17.9375C115.687 17.8061 115.521 17.7057 115.336 17.6322C115.15 17.5588 114.957 17.5202 114.76 17.5202C114.563 17.5202 114.37 17.5588 114.196 17.6322C114.022 17.7095 113.867 17.81 113.732 17.9452C113.597 18.0766 113.492 18.2312 113.419 18.4012C113.346 18.5712 113.307 18.7605 113.307 18.9615C113.307 19.1624 113.346 19.3518 113.419 19.5256C113.492 19.6995 113.597 19.8541 113.732 19.9893C113.867 20.1246 114.022 20.2289 114.196 20.3023C114.37 20.3757 114.559 20.4144 114.764 20.4144C114.949 20.4144 115.131 20.3796 115.316 20.3062C115.502 20.2328 115.664 20.1362 115.807 20.0164L116.043 20.2907C115.931 20.3796 115.799 20.4607 115.656 20.5303C115.513 20.5999 115.363 20.654 115.208 20.6926C115.054 20.7312 114.895 20.7506 114.737 20.7506C114.478 20.7506 114.238 20.7042 114.018 20.6114C113.798 20.5187 113.605 20.3912 113.434 20.225C113.268 20.0627 113.137 19.8695 113.044 19.6532C112.951 19.4368 112.905 19.2011 112.905 18.9538C112.905 18.7065 112.951 18.4746 113.048 18.2621C113.145 18.0496 113.276 17.8602 113.446 17.6941C113.616 17.5279 113.813 17.4043 114.037 17.3115C114.261 17.2226 114.501 17.1763 114.76 17.1763C114.922 17.1763 115.081 17.1956 115.235 17.2342C115.39 17.2729 115.537 17.327 115.676 17.3965C115.815 17.4661 115.942 17.5511 116.054 17.6516L115.822 17.9259L115.826 17.9375ZM115.691 19.0078H116.047V20.2946H115.691V19.0078Z" fill="white"/>
    <path d="M118.836 19.2513C118.829 19.0736 118.79 18.919 118.713 18.7915C118.636 18.664 118.535 18.5635 118.408 18.494C118.28 18.4244 118.125 18.3897 117.952 18.3897C117.766 18.3897 117.604 18.4322 117.469 18.5133C117.329 18.5983 117.221 18.7142 117.14 18.8649C117.059 19.0156 117.02 19.1934 117.02 19.3943C117.02 19.5952 117.063 19.7846 117.144 19.9392C117.225 20.0937 117.341 20.2174 117.488 20.3024C117.635 20.3913 117.801 20.4338 117.99 20.4338C118.326 20.4338 118.597 20.3217 118.809 20.0937L119.026 20.3101C118.898 20.4492 118.744 20.5535 118.562 20.6308C118.381 20.7081 118.183 20.7429 117.963 20.7429C117.7 20.7429 117.472 20.6849 117.272 20.5729C117.071 20.4608 116.916 20.3024 116.808 20.1014C116.7 19.9005 116.642 19.6687 116.642 19.4098C116.642 19.1509 116.696 18.919 116.808 18.7181C116.92 18.5172 117.074 18.3626 117.272 18.2505C117.472 18.1385 117.697 18.0805 117.952 18.0767C118.238 18.0767 118.473 18.1385 118.659 18.2583C118.844 18.3781 118.983 18.5519 119.072 18.7722C119.161 18.9925 119.196 19.2475 119.18 19.545H116.943V19.2552H118.833L118.836 19.2513Z" fill="white"/>
    <path d="M119.806 18.0841H120.197V20.7271H119.806V18.0841ZM121.835 19.1931C121.835 18.9535 121.769 18.7642 121.638 18.6289C121.507 18.4937 121.321 18.4241 121.089 18.4241C120.807 18.4241 120.587 18.5207 120.432 18.7062C120.274 18.8917 120.197 19.1313 120.197 19.4288H120.061C120.061 19.1197 120.108 18.8685 120.2 18.6676C120.293 18.4666 120.428 18.3198 120.606 18.2193C120.784 18.1189 120.989 18.0725 121.228 18.0725C121.441 18.0725 121.619 18.115 121.769 18.2C121.92 18.285 122.036 18.401 122.113 18.5555C122.19 18.7062 122.233 18.8917 122.233 19.1042V20.7271H121.843V19.197L121.835 19.1931Z" fill="white"/>
    <path d="M125 19.2513C124.992 19.0736 124.953 18.919 124.876 18.7915C124.799 18.664 124.698 18.5635 124.571 18.494C124.443 18.4244 124.289 18.3897 124.115 18.3897C123.929 18.3897 123.767 18.4322 123.632 18.5133C123.493 18.5983 123.385 18.7142 123.303 18.8649C123.222 19.0156 123.184 19.1934 123.184 19.3943C123.184 19.5952 123.226 19.7846 123.307 19.9392C123.388 20.0937 123.504 20.2174 123.651 20.3024C123.798 20.3913 123.964 20.4338 124.153 20.4338C124.49 20.4338 124.76 20.3217 124.973 20.0937L125.189 20.3101C125.062 20.4492 124.907 20.5535 124.725 20.6308C124.544 20.7081 124.347 20.7429 124.126 20.7429C123.864 20.7429 123.636 20.6849 123.435 20.5729C123.234 20.4608 123.079 20.3024 122.971 20.1014C122.863 19.9005 122.805 19.6687 122.805 19.4098C122.805 19.1509 122.859 18.919 122.971 18.7181C123.083 18.5172 123.238 18.3626 123.435 18.2505C123.636 18.1385 123.86 18.0805 124.115 18.0767C124.401 18.0767 124.636 18.1385 124.822 18.2583C125.007 18.3781 125.147 18.5519 125.235 18.7722C125.324 18.9925 125.359 19.2475 125.344 19.545H123.106V19.2552H124.996L125 19.2513Z" fill="white"/>
    <path d="M125.966 18.0841H126.356V20.7271H125.966V18.0841ZM127.307 18.4318C127.109 18.4318 126.939 18.4705 126.796 18.5555C126.654 18.6405 126.545 18.7603 126.468 18.911C126.391 19.0617 126.352 19.2433 126.352 19.4442L126.217 19.4288C126.217 19.139 126.259 18.8955 126.348 18.6946C126.437 18.4937 126.561 18.3391 126.727 18.2309C126.889 18.1227 127.086 18.0686 127.31 18.0686V18.4241L127.307 18.4318Z" fill="white"/>
    <path d="M128.636 19.4868C128.416 19.4868 128.245 19.5254 128.133 19.5988C128.021 19.6722 127.963 19.7843 127.963 19.935C127.963 20.0857 128.017 20.2055 128.126 20.2982C128.234 20.391 128.385 20.4373 128.57 20.4373C128.725 20.4373 128.864 20.4103 128.987 20.3601C129.111 20.3098 129.215 20.2364 129.297 20.1437C129.378 20.0509 129.436 19.935 129.467 19.8036L129.567 20.1205C129.474 20.333 129.335 20.4876 129.15 20.5919C128.964 20.6962 128.748 20.7465 128.497 20.7465C128.315 20.7465 128.157 20.7117 128.021 20.6421C127.886 20.5726 127.782 20.476 127.708 20.3562C127.635 20.2364 127.596 20.1012 127.596 19.9505C127.596 19.7225 127.685 19.5409 127.859 19.4095C128.033 19.2742 128.276 19.2086 128.586 19.2047H129.525V19.4945H128.636V19.4868ZM129.455 19.0192C129.455 18.8183 129.397 18.6637 129.277 18.5517C129.157 18.4396 128.98 18.3855 128.748 18.3855C128.601 18.3855 128.458 18.4126 128.323 18.4666C128.188 18.5207 128.048 18.5942 127.909 18.6908L127.743 18.4357C127.855 18.3585 127.967 18.2928 128.075 18.2387C128.184 18.1846 128.296 18.1421 128.415 18.115C128.535 18.088 128.671 18.0725 128.821 18.0725C129.15 18.0725 129.401 18.1537 129.575 18.3159C129.749 18.4782 129.837 18.6985 129.841 18.9806V20.7233H129.463L129.451 19.0153L129.455 19.0192Z" fill="white"/>
    <path d="M130.309 18.1654H131.916V18.4552H130.309V18.1654ZM131.078 19.9351C131.078 20.1013 131.109 20.2211 131.167 20.2945C131.229 20.3679 131.314 20.4027 131.43 20.4027C131.495 20.4027 131.565 20.3872 131.634 20.3641C131.704 20.3409 131.777 20.3061 131.851 20.2597L131.963 20.5457C131.874 20.6075 131.777 20.6539 131.673 20.6886C131.572 20.7234 131.468 20.7427 131.364 20.7427C131.232 20.7427 131.117 20.7157 131.016 20.6655C130.916 20.6152 130.834 20.5341 130.776 20.422C130.719 20.31 130.688 20.1709 130.688 19.9931V17.4814H131.074V19.9313L131.078 19.9351Z" fill="white"/>
    <path d="M132.651 17.0754C132.724 17.0754 132.786 17.0986 132.832 17.1489C132.882 17.1991 132.906 17.2571 132.906 17.3305C132.906 17.4039 132.882 17.4618 132.832 17.5121C132.782 17.5623 132.724 17.5894 132.651 17.5894C132.577 17.5894 132.519 17.5623 132.469 17.5121C132.419 17.4618 132.392 17.4 132.392 17.3305C132.392 17.2609 132.415 17.1952 132.469 17.1489C132.519 17.1025 132.581 17.0754 132.651 17.0754ZM132.461 18.084H132.848V20.727H132.461V18.084Z" fill="white"/>
    <path d="M134.807 18.0767C135.07 18.0767 135.301 18.1346 135.502 18.2467C135.703 18.3587 135.862 18.5172 135.978 18.7181C136.09 18.919 136.148 19.1509 136.148 19.4098C136.148 19.6687 136.09 19.9005 135.978 20.1014C135.866 20.3024 135.707 20.4569 135.502 20.5729C135.301 20.6849 135.07 20.7429 134.807 20.7429C134.544 20.7429 134.312 20.6849 134.111 20.5729C133.91 20.4608 133.752 20.3024 133.636 20.1014C133.524 19.9005 133.466 19.6687 133.466 19.4098C133.466 19.1509 133.524 18.919 133.636 18.7181C133.748 18.5172 133.906 18.3626 134.111 18.2467C134.312 18.1346 134.544 18.0767 134.807 18.0767ZM134.807 18.4012C134.621 18.4012 134.459 18.4437 134.316 18.5288C134.173 18.6138 134.061 18.7336 133.98 18.8843C133.899 19.035 133.86 19.2088 133.86 19.4059C133.86 19.603 133.899 19.7846 133.98 19.9353C134.061 20.086 134.173 20.2058 134.316 20.2908C134.459 20.3758 134.625 20.4183 134.807 20.4183C134.988 20.4183 135.158 20.3758 135.301 20.2908C135.444 20.2058 135.556 20.086 135.634 19.9353C135.715 19.7846 135.753 19.6068 135.753 19.4059C135.753 19.205 135.715 19.035 135.634 18.8843C135.553 18.7336 135.44 18.6138 135.301 18.5288C135.162 18.4437 134.996 18.4012 134.807 18.4012Z" fill="white"/>
    <path d="M136.777 18.0841H137.168V20.7271H136.777V18.0841ZM138.806 19.1931C138.806 18.9535 138.74 18.7642 138.609 18.6289C138.478 18.4937 138.292 18.4241 138.06 18.4241C137.778 18.4241 137.558 18.5207 137.403 18.7062C137.245 18.8917 137.168 19.1313 137.168 19.4288H137.032C137.032 19.1197 137.079 18.8685 137.172 18.6676C137.264 18.4666 137.4 18.3198 137.577 18.2193C137.755 18.1189 137.96 18.0725 138.199 18.0725C138.412 18.0725 138.59 18.115 138.74 18.2C138.891 18.285 139.007 18.401 139.084 18.5555C139.162 18.7062 139.204 18.8917 139.204 19.1042V20.7271H138.814V19.197L138.806 19.1931Z" fill="white"/>
    <path d="M102.163 23.9925C102.028 23.8572 101.869 23.749 101.688 23.6679C101.506 23.5906 101.317 23.5481 101.123 23.5481C100.93 23.5481 100.741 23.5867 100.567 23.6601C100.393 23.7336 100.242 23.8379 100.111 23.9693C99.9796 24.1007 99.8792 24.2552 99.8057 24.4291C99.7323 24.603 99.6937 24.7923 99.6937 24.9933C99.6937 25.1942 99.7323 25.3758 99.8057 25.5497C99.8792 25.7236 99.9835 25.8743 100.111 26.0057C100.242 26.137 100.393 26.2375 100.567 26.3148C100.741 26.3921 100.926 26.4268 101.123 26.4268C101.32 26.4268 101.506 26.3882 101.684 26.3148C101.861 26.2414 102.024 26.1332 102.163 26.0018L102.41 26.253C102.298 26.3612 102.167 26.4539 102.028 26.535C101.885 26.6162 101.738 26.678 101.583 26.7205C101.429 26.763 101.27 26.7862 101.108 26.7862C100.853 26.7862 100.617 26.7398 100.397 26.6471C100.177 26.5544 99.9835 26.4268 99.8173 26.2607C99.6512 26.0984 99.5198 25.9052 99.4271 25.6888C99.3343 25.4724 99.2879 25.2367 99.2879 24.9894C99.2879 24.7421 99.3343 24.5103 99.4271 24.2977C99.5198 24.0852 99.6512 23.8959 99.8173 23.7297C99.9835 23.5674 100.181 23.4399 100.401 23.3472C100.621 23.2583 100.861 23.2119 101.12 23.2119C101.282 23.2119 101.436 23.2312 101.591 23.2737C101.746 23.3124 101.892 23.3703 102.028 23.4476C102.163 23.5249 102.29 23.6138 102.402 23.722L102.163 23.9925Z" fill="white"/>
    <path d="M103.855 27.1297C103.77 27.3306 103.662 27.4852 103.527 27.5856C103.392 27.6861 103.237 27.7402 103.063 27.7402C102.951 27.7402 102.851 27.7247 102.762 27.6938C102.673 27.6629 102.584 27.6165 102.507 27.5547L102.673 27.2649C102.789 27.3461 102.913 27.3847 103.044 27.3847C103.144 27.3847 103.237 27.3538 103.322 27.2881C103.407 27.2224 103.477 27.1258 103.527 26.9944L103.639 26.7394L102.545 24.1118H102.951L103.836 26.3375L104.675 24.1118H105.076L103.859 27.1297H103.855Z" fill="white"/>
    <path d="M105.521 23.0264H105.911V26.7552H105.521V23.0264ZM106.931 24.1044C107.182 24.1044 107.403 24.1624 107.596 24.2745C107.789 24.3865 107.936 24.545 108.044 24.7459C108.152 24.9468 108.206 25.1787 108.206 25.4376C108.206 25.6965 108.152 25.9244 108.044 26.1254C107.936 26.3263 107.789 26.4809 107.6 26.5968C107.41 26.7088 107.19 26.7668 106.939 26.7668C106.688 26.7668 106.487 26.7127 106.309 26.6045C106.131 26.4963 105.992 26.3418 105.892 26.1408C105.791 25.9399 105.745 25.708 105.745 25.4414C105.745 25.1748 105.795 24.9352 105.892 24.7343C105.992 24.5334 106.131 24.3788 106.309 24.2706C106.487 24.1624 106.695 24.1083 106.935 24.1083L106.931 24.1044ZM106.862 24.4213C106.676 24.4213 106.514 24.4677 106.371 24.5527C106.228 24.6416 106.116 24.7613 106.035 24.912C105.954 25.0627 105.915 25.2366 105.915 25.4337C105.915 25.6308 105.954 25.8008 106.035 25.9553C106.116 26.1099 106.228 26.2258 106.371 26.3147C106.514 26.3997 106.68 26.4461 106.862 26.4461C107.043 26.4461 107.209 26.4036 107.352 26.3147C107.495 26.2258 107.607 26.106 107.685 25.9553C107.762 25.8047 107.804 25.6308 107.804 25.4337C107.804 25.2366 107.766 25.0627 107.685 24.912C107.604 24.7613 107.491 24.6416 107.352 24.5527C107.209 24.4638 107.047 24.4213 106.862 24.4213Z" fill="white"/>
    <path d="M110.83 25.2792C110.822 25.1014 110.784 24.9469 110.706 24.8194C110.629 24.6918 110.529 24.5914 110.401 24.5218C110.274 24.4523 110.119 24.4175 109.945 24.4175C109.76 24.4175 109.597 24.46 109.462 24.5411C109.323 24.6261 109.215 24.7421 109.134 24.8928C109.053 25.0435 109.014 25.2212 109.014 25.4221C109.014 25.6231 109.056 25.8124 109.138 25.967C109.219 26.1215 109.335 26.2452 109.481 26.3302C109.628 26.4191 109.794 26.4616 109.984 26.4616C110.32 26.4616 110.59 26.3495 110.803 26.1215L111.019 26.3379C110.892 26.477 110.737 26.5814 110.556 26.6587C110.374 26.7359 110.177 26.7707 109.957 26.7707C109.694 26.7707 109.466 26.7128 109.265 26.6007C109.064 26.4886 108.91 26.3302 108.801 26.1293C108.693 25.9283 108.635 25.6965 108.635 25.4376C108.635 25.1787 108.689 24.9469 108.801 24.7459C108.913 24.545 109.068 24.3904 109.265 24.2784C109.466 24.1663 109.69 24.1084 109.945 24.1045C110.231 24.1045 110.467 24.1663 110.652 24.2861C110.838 24.4059 110.977 24.5798 111.066 24.8C111.155 25.0203 111.189 25.2753 111.174 25.5728H108.937V25.283H110.826L110.83 25.2792Z" fill="white"/>
    <path d="M111.796 24.1121H112.186V26.7552H111.796V24.1121ZM113.137 24.4599C112.94 24.4599 112.77 24.4985 112.627 24.5836C112.484 24.6686 112.376 24.7884 112.298 24.9391C112.221 25.0898 112.182 25.2714 112.182 25.4723L112.047 25.4568C112.047 25.167 112.09 24.9236 112.179 24.7227C112.267 24.5217 112.391 24.3672 112.557 24.259C112.72 24.1508 112.917 24.0967 113.141 24.0967V24.4522L113.137 24.4599Z" fill="white"/>
    <path d="M115.092 24.6144C114.988 24.5526 114.872 24.5023 114.744 24.4637C114.617 24.425 114.493 24.4096 114.373 24.4096C114.227 24.4096 114.103 24.4405 114.002 24.4985C113.902 24.5564 113.852 24.653 113.852 24.7805C113.852 24.881 113.887 24.9622 113.96 25.0201C114.033 25.0781 114.122 25.1283 114.234 25.1669C114.346 25.2056 114.466 25.2442 114.59 25.279C114.713 25.3176 114.833 25.3602 114.945 25.4181C115.057 25.4722 115.15 25.5495 115.22 25.6461C115.289 25.7427 115.324 25.8702 115.324 26.0286C115.324 26.1987 115.278 26.3378 115.185 26.446C115.092 26.5542 114.972 26.6353 114.829 26.6855C114.683 26.7358 114.524 26.7628 114.354 26.7628C114.165 26.7628 113.983 26.7319 113.802 26.6662C113.62 26.6005 113.465 26.5117 113.338 26.3957L113.489 26.1291C113.601 26.2334 113.74 26.3146 113.898 26.3725C114.057 26.4305 114.215 26.4614 114.37 26.4614C114.474 26.4614 114.567 26.446 114.652 26.4189C114.737 26.3919 114.806 26.3455 114.856 26.2875C114.907 26.2296 114.934 26.1562 114.934 26.0634C114.934 25.9514 114.903 25.8664 114.837 25.8045C114.768 25.7427 114.679 25.6925 114.567 25.65C114.455 25.6113 114.335 25.5727 114.211 25.534C114.084 25.4993 113.968 25.4529 113.856 25.3949C113.744 25.3408 113.651 25.2674 113.581 25.1747C113.512 25.0819 113.477 24.9583 113.477 24.7999C113.477 24.6414 113.519 24.5023 113.608 24.398C113.697 24.2937 113.809 24.2164 113.948 24.1661C114.087 24.1159 114.238 24.0889 114.397 24.0889C114.555 24.0889 114.706 24.1082 114.853 24.1507C114.999 24.1932 115.131 24.2512 115.239 24.3246L115.088 24.6067L115.092 24.6144Z" fill="white"/>
    <path d="M117.897 25.2792C117.89 25.1014 117.851 24.9469 117.774 24.8194C117.697 24.6918 117.596 24.5914 117.469 24.5218C117.341 24.4523 117.186 24.4175 117.013 24.4175C116.827 24.4175 116.665 24.46 116.53 24.5411C116.39 24.6261 116.282 24.7421 116.201 24.8928C116.12 25.0435 116.081 25.2212 116.081 25.4221C116.081 25.6231 116.124 25.8124 116.205 25.967C116.286 26.1215 116.402 26.2452 116.549 26.3302C116.696 26.4191 116.862 26.4616 117.051 26.4616C117.387 26.4616 117.658 26.3495 117.87 26.1215L118.087 26.3379C117.959 26.477 117.805 26.5814 117.623 26.6587C117.441 26.7359 117.244 26.7707 117.024 26.7707C116.761 26.7707 116.533 26.7128 116.332 26.6007C116.132 26.4886 115.977 26.3302 115.869 26.1293C115.761 25.9283 115.703 25.6965 115.703 25.4376C115.703 25.1787 115.757 24.9469 115.869 24.7459C115.981 24.545 116.135 24.3904 116.332 24.2784C116.533 24.1663 116.758 24.1084 117.013 24.1045C117.299 24.1045 117.534 24.1663 117.72 24.2861C117.905 24.4059 118.044 24.5798 118.133 24.8C118.222 25.0203 118.257 25.2753 118.241 25.5728H116.004V25.283H117.894L117.897 25.2792Z" fill="white"/>
    <path d="M120.769 24.7459C120.672 24.6493 120.556 24.572 120.425 24.5179C120.293 24.4638 120.146 24.4368 119.984 24.4368C119.802 24.4368 119.64 24.4793 119.501 24.5643C119.358 24.6493 119.246 24.7652 119.169 24.9159C119.088 25.0666 119.049 25.2405 119.049 25.4376C119.049 25.6346 119.088 25.8085 119.169 25.9631C119.25 26.1176 119.362 26.2336 119.501 26.3186C119.644 26.4036 119.806 26.4461 119.984 26.4461C120.154 26.4461 120.313 26.4152 120.452 26.3572C120.591 26.2993 120.711 26.2104 120.807 26.0983L121.027 26.3186C120.911 26.4577 120.761 26.5697 120.579 26.647C120.398 26.7243 120.193 26.7668 119.965 26.7668C119.71 26.7668 119.486 26.7089 119.289 26.5968C119.091 26.4847 118.937 26.3263 118.825 26.1254C118.713 25.9244 118.655 25.6926 118.655 25.4337C118.655 25.1748 118.713 24.943 118.825 24.742C118.937 24.5411 119.091 24.3865 119.289 24.2706C119.486 24.1585 119.714 24.1006 119.965 24.1006C120.177 24.1006 120.374 24.1354 120.544 24.2049C120.714 24.2745 120.865 24.3672 120.985 24.487L120.765 24.742L120.769 24.7459Z" fill="white"/>
    <path d="M121.928 25.6497C121.928 25.8893 121.993 26.0748 122.125 26.21C122.256 26.3453 122.434 26.4148 122.662 26.4148C122.936 26.4071 123.149 26.3144 123.303 26.1289C123.454 25.9434 123.531 25.7038 123.531 25.4102H123.663C123.663 25.7193 123.616 25.9704 123.524 26.1714C123.431 26.3723 123.299 26.5191 123.133 26.6157C122.963 26.7124 122.762 26.7626 122.527 26.7664C122.322 26.7664 122.148 26.7239 121.997 26.6428C121.85 26.5617 121.735 26.4419 121.657 26.2873C121.58 26.1327 121.537 25.9511 121.537 25.7386V24.1118H121.928V25.6497ZM123.531 24.1118H123.922V26.7549H123.531V24.1118Z" fill="white"/>
    <path d="M124.764 24.1121H125.154V26.7552H124.764V24.1121ZM126.105 24.4599C125.908 24.4599 125.738 24.4985 125.595 24.5836C125.452 24.6686 125.344 24.7884 125.266 24.9391C125.189 25.0898 125.15 25.2714 125.15 25.4723L125.015 25.4568C125.015 25.167 125.058 24.9236 125.147 24.7227C125.235 24.5217 125.359 24.3672 125.525 24.259C125.688 24.1508 125.885 24.0967 126.109 24.0967V24.4522L126.105 24.4599Z" fill="white"/>
    <path d="M126.769 23.1035C126.843 23.1035 126.905 23.1267 126.951 23.1769C127.001 23.2272 127.025 23.2851 127.025 23.3585C127.025 23.432 127.001 23.4899 126.951 23.5402C126.901 23.5904 126.843 23.6174 126.769 23.6174C126.696 23.6174 126.638 23.5904 126.588 23.5402C126.538 23.4899 126.511 23.4281 126.511 23.3585C126.511 23.289 126.534 23.2233 126.588 23.1769C126.638 23.1306 126.7 23.1035 126.769 23.1035ZM126.58 24.112H126.967V26.7551H126.58V24.112Z" fill="white"/>
    <path d="M127.507 24.1932H129.115V24.483H127.507V24.1932ZM128.273 25.963C128.273 26.1291 128.303 26.2489 128.361 26.3223C128.423 26.3958 128.508 26.4305 128.624 26.4305C128.69 26.4305 128.759 26.4151 128.829 26.3919C128.899 26.3687 128.972 26.3339 129.045 26.2876L129.157 26.5735C129.069 26.6353 128.972 26.6817 128.868 26.7165C128.767 26.7513 128.663 26.7706 128.558 26.7706C128.427 26.7706 128.311 26.7435 128.211 26.6933C128.11 26.6431 128.029 26.5619 127.971 26.4499C127.913 26.3378 127.882 26.1987 127.882 26.0209V23.5093H128.269V25.9591L128.273 25.963Z" fill="white"/>
    <path d="M130.711 27.1297C130.626 27.3306 130.518 27.4852 130.382 27.5856C130.247 27.6861 130.093 27.7402 129.919 27.7402C129.807 27.7402 129.706 27.7247 129.617 27.6938C129.528 27.6629 129.44 27.6165 129.362 27.5547L129.528 27.2649C129.644 27.3461 129.768 27.3847 129.899 27.3847C130 27.3847 130.093 27.3538 130.178 27.2881C130.263 27.2224 130.332 27.1258 130.382 26.9944L130.494 26.7394L129.401 24.1118H129.807L130.691 26.3375L131.53 24.1118H131.932L130.715 27.1297H130.711Z" fill="white"/>
    </g>
    <defs>
    <clipPath id="clip0_25_1281">
    <rect width="140" height="42.0375" fill="white"/>
    </clipPath>
    </defs>
    </svg>
    