<svg width="52" height="52" viewBox="0 0 52 52" fill="none" xmlns="http://www.w3.org/2000/svg">
    <rect width="52" height="52" rx="26" fill="#0F0F0F"/>
    <path fill-rule="evenodd" clip-rule="evenodd" d="M21.6591 22.6323C20.34 23.5814 19.2641 24.7442 18.5839 25.57C18.3716 25.8278 18.3716 26.1722 18.5839 26.43C19.2641 27.2558 20.34 28.4186 21.6591 29.3677C22.9862 30.3224 24.4742 31 26 31C27.5258 31 29.0138 30.3224 30.3409 29.3677C31.66 28.4186 32.7359 27.2558 33.4161 26.43C33.6284 26.1722 33.6284 25.8278 33.4161 25.57C32.7359 24.7442 31.66 23.5814 30.3409 22.6323C29.0138 21.6776 27.5258 21 26 21C24.4742 21 22.9862 21.6776 21.6591 22.6323ZM20.4911 21.0088C21.9941 19.9275 23.8901 19 26 19C28.1099 19 30.0059 19.9275 31.5089 21.0088C33.0198 22.0959 34.2201 23.4002 34.9599 24.2985C35.7805 25.2948 35.7805 26.7052 34.9599 27.7015C34.2201 28.5998 33.0198 29.9041 31.5089 30.9912C30.0059 32.0725 28.1099 33 26 33C23.8901 33 21.9941 32.0725 20.4911 30.9912C18.9802 29.9041 17.7799 28.5998 17.0401 27.7015C16.2195 26.7052 16.2195 25.2948 17.0401 24.2985C17.78 23.4002 18.9802 22.0959 20.4911 21.0088Z" fill="white"/>
    <path fill-rule="evenodd" clip-rule="evenodd" d="M26 24C24.8954 24 24 24.8954 24 26C24 27.1046 24.8954 28 26 28C27.1046 28 28 27.1046 28 26C28 24.8954 27.1046 24 26 24ZM22 26C22 23.7909 23.7909 22 26 22C28.2091 22 30 23.7909 30 26C30 28.2091 28.2091 30 26 30C23.7909 30 22 28.2091 22 26Z" fill="white"/>
    </svg>
    