<svg width="171" height="29" viewBox="0 0 171 29" fill="none" xmlns="http://www.w3.org/2000/svg">
    <g clip-path="url(#clip0_25_1934)">
    <path d="M55.3059 23.4825L56.4156 20.1807H63.3343L64.444 23.4825H69.2254L62.526 4.76782H57.2924L50.5793 23.4825H55.3059ZM59.8681 9.80954L62.1698 16.6597H57.6075L59.8818 9.80954H59.8681Z" fill="white"/>
    <path d="M71.5681 23.4825H76.0756V17.3036L82.4873 4.76782H77.4182L73.8561 12.6044L70.2666 4.76782H65.1427L71.5681 17.3036V23.4825Z" fill="white"/>
    <path d="M96.7083 23.4825L90.0088 4.76782H84.7753L78.0621 23.4825H82.7887L83.8985 20.1807H90.8171L91.9269 23.4825H96.7083ZM85.0904 16.6597L87.3646 9.80954L89.6663 16.6597H85.1041H85.0904Z" fill="white"/>
    <path d="M101.928 9.248C102.298 9.1247 102.586 8.9329 102.819 8.64519C103.038 8.35748 103.147 8.01498 103.147 7.59027C103.147 7.23406 103.051 6.90525 102.873 6.63124C102.695 6.34354 102.421 6.12433 102.079 5.97363C101.723 5.80922 101.311 5.74072 100.832 5.74072H97.8864V12.9608H100.969C101.448 12.9608 101.873 12.8786 102.229 12.7142C102.586 12.5498 102.86 12.3169 103.038 12.0292C103.23 11.7415 103.325 11.399 103.325 11.0153C103.325 10.5906 103.202 10.207 102.942 9.87822C102.682 9.54941 102.353 9.34391 101.955 9.2754L101.928 9.248ZM99.3112 8.71369V6.90525H100.626C100.969 6.90525 101.229 6.98745 101.407 7.13816C101.585 7.30256 101.681 7.52176 101.681 7.80947C101.681 8.09718 101.585 8.31638 101.407 8.48079C101.229 8.63149 100.955 8.71369 100.626 8.71369H99.3112ZM101.558 11.5223C101.366 11.6867 101.092 11.7689 100.75 11.7689H99.3112V9.82342H100.722C101.065 9.82342 101.353 9.90562 101.544 10.0837C101.75 10.2618 101.846 10.5084 101.846 10.8098C101.846 11.1112 101.75 11.3442 101.558 11.5086V11.5223Z" fill="white"/>
    <path d="M105.367 11.7963V5.74072H103.942V12.9471H107.723V11.7963H105.367Z" fill="white"/>
    <path d="M130.014 8.76831H127.397V9.91914H130.014V8.76831Z" fill="white"/>
    <path d="M113.286 6.11037C112.724 5.79526 112.107 5.63086 111.436 5.63086C110.765 5.63086 110.148 5.79526 109.6 6.11037C109.038 6.42548 108.6 6.86389 108.271 7.4256C107.942 7.98731 107.778 8.61753 107.778 9.31625C107.778 10.015 107.942 10.6589 108.271 11.2206C108.6 11.7823 109.038 12.2207 109.6 12.5358C110.162 12.8509 110.778 13.0153 111.436 13.0153C112.094 13.0153 112.724 12.8509 113.272 12.5358C113.834 12.2207 114.272 11.7823 114.601 11.2206C114.93 10.6589 115.08 10.015 115.08 9.31625C115.08 8.61753 114.916 7.98731 114.601 7.4256C114.272 6.86389 113.834 6.42548 113.286 6.11037ZM113.34 10.5904C113.149 10.9603 112.902 11.2343 112.573 11.4261C112.244 11.6179 111.861 11.7138 111.436 11.7138C111.011 11.7138 110.628 11.6179 110.299 11.4261C109.97 11.2343 109.71 10.9466 109.532 10.5904C109.354 10.2205 109.258 9.79576 109.258 9.31625C109.258 8.83673 109.354 8.41202 109.532 8.05582C109.723 7.69961 109.97 7.4119 110.299 7.2201C110.628 7.02829 111.011 6.93239 111.436 6.93239C111.861 6.93239 112.244 7.02829 112.573 7.2201C112.902 7.4119 113.162 7.68591 113.34 8.05582C113.518 8.41202 113.614 8.83673 113.614 9.31625C113.614 9.79576 113.518 10.2205 113.34 10.5904Z" fill="white"/>
    <path d="M117.807 7.23398C118.135 7.04218 118.505 6.94628 118.916 6.94628C119.3 6.94628 119.643 7.02848 119.944 7.20658C120.245 7.38469 120.465 7.63129 120.629 7.9875H122.273C122.04 7.26138 121.615 6.68597 121.013 6.27496C120.41 5.86395 119.711 5.65845 118.916 5.65845C118.231 5.65845 117.615 5.80915 117.067 6.12426C116.519 6.43936 116.08 6.87778 115.765 7.43949C115.45 8.0012 115.286 8.63142 115.286 9.34383C115.286 10.0562 115.45 10.6865 115.765 11.2482C116.08 11.8099 116.519 12.2483 117.067 12.5497C117.615 12.8648 118.231 13.0155 118.916 13.0155C119.725 13.0155 120.423 12.81 121.026 12.399C121.629 11.988 122.04 11.4126 122.287 10.6728H120.643C120.478 11.0153 120.245 11.2756 119.958 11.4537C119.656 11.6318 119.314 11.714 118.93 11.714C118.519 11.714 118.149 11.6181 117.82 11.4263C117.492 11.2345 117.245 10.9468 117.067 10.5906C116.889 10.2344 116.793 9.82334 116.793 9.33013C116.793 8.83692 116.889 8.42591 117.067 8.0697C117.245 7.71349 117.505 7.43949 117.82 7.23398H117.807Z" fill="white"/>
    <path d="M128.753 5.74072H127.027L124.424 8.974V5.74072H122.999V12.9471H124.424V9.74122L127.027 12.9471H128.835L125.808 9.31651L128.753 5.74072Z" fill="white"/>
    <path d="M101.544 16.6458C101.873 16.454 102.243 16.3581 102.654 16.3581C103.038 16.3581 103.38 16.4403 103.682 16.6184C103.983 16.7966 104.202 17.0432 104.367 17.3994H106.011C105.778 16.6732 105.353 16.0978 104.75 15.6868C104.147 15.2758 103.449 15.0703 102.654 15.0703C101.969 15.0703 101.353 15.221 100.805 15.5361C100.257 15.8512 99.8182 16.2896 99.5031 16.8514C99.188 17.4131 99.0236 18.0433 99.0236 18.7557C99.0236 19.4681 99.188 20.0983 99.5031 20.66C99.8182 21.2218 100.257 21.6602 100.805 21.9616C101.353 22.2767 101.969 22.4274 102.654 22.4274C103.462 22.4274 104.161 22.2219 104.764 21.8109C105.367 21.3999 105.778 20.8244 106.011 20.0846H104.367C104.202 20.4271 103.969 20.6874 103.682 20.8655C103.394 21.0437 103.038 21.1259 102.654 21.1259C102.243 21.1259 101.873 21.03 101.544 20.8381C101.216 20.6463 100.969 20.3586 100.791 20.0024C100.613 19.6462 100.517 19.2352 100.517 18.742C100.517 18.2488 100.613 17.8378 100.791 17.4816C100.969 17.1254 101.229 16.8514 101.544 16.6458Z" fill="white"/>
    <path d="M111.737 18.0982H108.682V15.1389H107.244V22.3453H108.682V19.2764H111.737V22.3453H113.176V15.1389H111.737V18.0982Z" fill="white"/>
    <path d="M116.286 15.1252L113.724 22.3453H115.231L115.697 20.9753H118.547L119.012 22.3453H120.533L117.971 15.1252H116.3H116.286ZM116.08 19.8245L117.108 16.8104L118.135 19.8245H116.067H116.08Z" fill="white"/>
    <path d="M122.657 15.1389H121.218V22.359H122.657V15.1389Z" fill="white"/>
    <path d="M128.575 15.1252V20.0848L125.328 15.1252H123.89V22.3453H125.328V17.3995L128.575 22.3453H130V15.1252H128.575Z" fill="white"/>
    <path d="M41.6466 23.6878C39.8245 23.6878 38.1667 23.2768 36.7282 22.4685C35.2897 21.6602 34.1526 20.5094 33.3442 19.0571C32.5359 17.6186 32.1386 15.9471 32.1386 14.0976C32.1386 12.2481 32.5496 10.5766 33.3442 9.12439C34.1526 7.67215 35.2897 6.52133 36.7145 5.69931C38.1393 4.89099 39.7971 4.47998 41.6192 4.47998C43.8387 4.47998 45.7293 5.02799 47.2638 6.12402C48.7982 7.22004 49.8394 8.75448 50.3326 10.6999L50.4422 11.152H44.9347L44.8388 10.9602C44.5511 10.4259 44.1264 10.0012 43.5921 9.7272C43.0441 9.4395 42.3727 9.28879 41.6192 9.28879C40.2903 9.28879 39.2628 9.7135 38.4819 10.5766C37.6872 11.4397 37.2899 12.6317 37.2899 14.0976C37.2899 15.6594 37.7146 16.9062 38.5367 17.7693C39.3724 18.6461 40.4958 19.0708 41.9754 19.0708C42.9619 19.0708 43.8113 18.8105 44.4963 18.3173C45.058 17.8926 45.4964 17.3172 45.8115 16.5911H40.4136V12.618H50.6477V17.1939C50.2915 18.3447 49.7161 19.4133 48.9215 20.3998C48.1132 21.3862 47.0857 22.1945 45.8526 22.7973C44.6196 23.4001 43.2085 23.7152 41.6603 23.7152L41.6466 23.6878Z" fill="white"/>
    <path d="M24.6032 25.2636C22.2605 27.2227 19.356 28.1818 16.383 28.1818C13.7389 28.1818 11.0262 27.4282 8.60125 25.976C6.27219 24.5512 3.91574 25.6472 2.42241 26.7432C2.3813 26.7706 2.3128 26.7706 2.2717 26.7432C2.2306 26.7158 2.2306 26.6336 2.2717 26.5925C5.01177 23.0989 3.54583 21.3316 2.91562 20.2219C2.1621 18.9341 1.61409 17.5777 1.27158 16.2077C0.0385507 11.3167 1.36748 6.17906 5.21727 2.94578C8.93006 -0.205288 14.0677 -0.767002 18.6847 0.972938C18.7121 0.972938 18.7258 1.01404 18.6984 1.04144C18.6984 1.04144 18.6847 1.04144 18.671 1.04144C17.068 0.740033 15.3144 0.808535 13.5471 1.21954C12.9305 1.37025 12.314 1.54835 11.7112 1.78126C10.9577 2.11006 10.259 2.53477 9.61507 3.06909C5.58718 6.45307 5.53238 12.9059 9.49177 17.4681C11.7523 20.0712 14.8486 21.5097 17.8216 21.6193C20.0684 21.7015 22.2468 21.0576 23.973 19.6054C26.4391 17.5366 27.357 14.0567 26.8364 10.8235C26.3021 8.75472 25.1649 7.9464 23.7675 7.9464C22.3564 7.9464 20.6712 8.79582 19.1094 10.0151C19.0683 10.0425 19.0135 10.0425 18.9724 10.0151C18.9587 10.0014 18.945 9.97405 18.945 9.94665C18.945 9.91925 18.945 9.90555 18.9724 9.87814C21.5618 6.80927 22.4249 3.87741 21.0959 2.56218C21.0685 2.53477 21.0685 2.49367 21.0959 2.46627C21.0959 2.46627 21.1507 2.43887 21.1781 2.46627C21.9454 2.87728 22.8359 3.08279 23.7264 3.08279C24.9457 3.08279 26.0692 2.60328 27.0008 1.86346C27.0419 1.83606 27.083 1.83606 27.1241 1.86346C27.1241 1.86346 27.1515 1.94566 27.1241 1.97306C25.8773 3.5623 26.0829 5.95985 27.2885 8.49441C27.3433 8.60401 27.3981 8.71362 27.4529 8.82322C27.4529 8.82322 27.4529 8.85062 27.4666 8.85062C30.1655 14.5089 29.2339 21.359 24.6169 25.2362L24.6032 25.2636Z" fill="white"/>
    </g>
    <defs>
    <clipPath id="clip0_25_1934">
    <rect width="129.18" height="28.1816" fill="white" transform="translate(0.819702)"/>
    </clipPath>
    </defs>
    </svg>
    