<svg width="140" height="30" viewBox="0 0 140 30" fill="none" xmlns="http://www.w3.org/2000/svg">
    <path d="M23.8508 26.1244C21.5035 28.0955 18.5922 29.0492 15.6058 29.0492C12.9516 29.0492 10.2377 28.2965 7.80765 26.8348C5.46533 25.4096 3.11306 26.5044 1.6119 27.5999C1.56572 27.6337 1.50142 27.6291 1.46057 27.5889C1.41972 27.5488 1.41581 27.4831 1.45169 27.4372C4.20074 23.9323 2.73439 22.1576 2.09997 21.0479H2.10104C1.34619 19.7545 0.794534 18.3958 0.447838 17.0183C-0.791171 12.1088 0.545169 6.9602 4.4018 3.72165C8.13233 0.588607 13.2884 0.0259377 17.9084 1.77824C17.9371 1.78925 17.9453 1.82584 17.9233 1.84751C17.9155 1.85532 17.9044 1.85959 17.8938 1.85959C17.8913 1.85959 17.8885 1.85959 17.8856 1.85888C16.2775 1.558 14.5188 1.62123 12.7413 2.04217C12.1275 2.1871 11.5105 2.37572 10.8977 2.60662C10.1468 2.92951 9.43812 3.3611 8.79162 3.90353C4.74672 7.3005 4.69095 13.7673 8.66764 18.3468C10.9375 20.963 14.0336 22.3988 17.0239 22.515C19.2703 22.6023 21.4559 21.9466 23.1915 20.4902C25.6685 18.4097 26.5864 14.9221 26.06 11.6775C25.5214 9.60659 24.3794 8.79207 22.9877 8.79207C21.5959 8.79207 19.8844 9.64105 18.319 10.8683C18.2788 10.8996 18.2209 10.8968 18.1847 10.8609C18.1652 10.8417 18.1556 10.8165 18.1556 10.7909C18.1556 10.7685 18.163 10.7458 18.179 10.7273C20.7725 7.65537 21.6403 4.71663 20.3111 3.38526C20.2851 3.35933 20.2844 3.31777 20.3107 3.29184C20.3317 3.27123 20.364 3.26697 20.3903 3.28118C21.1554 3.69679 22.0506 3.90139 22.9518 3.90139C24.1695 3.90139 25.3033 3.42114 26.234 2.68476C26.2692 2.65706 26.3196 2.65954 26.3512 2.6908C26.3821 2.72171 26.3846 2.77002 26.3576 2.80447C25.1073 4.39266 25.3065 6.79822 26.5281 9.34124C26.5832 9.44888 26.6365 9.55686 26.6883 9.66485C26.6937 9.67551 26.6986 9.68581 26.7043 9.69646H26.704C29.4143 15.3644 28.4723 22.2439 23.8519 26.1244H23.8508Z" fill="white"/>
    <path d="M47.0149 4.66401C46.795 4.25879 46.4766 3.95198 46.0598 3.74358C45.6546 3.5236 45.1741 3.41361 44.6183 3.41361C43.6574 3.41361 42.8875 3.732 42.3086 4.36878C41.7297 4.99398 41.4402 5.83336 41.4402 6.88694C41.4402 8.00998 41.7413 8.88989 42.3433 9.52667C42.9569 10.1519 43.7963 10.4645 44.8615 10.4645C45.5909 10.4645 46.2045 10.2792 46.7023 9.90874C47.2118 9.53825 47.5823 9.00567 47.8138 8.311H44.0452V6.12281H50.5056V8.8841C50.2857 9.62508 49.9094 10.314 49.3768 10.9507C48.8558 11.5875 48.1901 12.1027 47.3796 12.4964C46.5692 12.89 45.6546 13.0868 44.6357 13.0868C43.4316 13.0868 42.3549 12.8263 41.4055 12.3053C40.4677 11.7728 39.7325 11.0376 39.2 10.0998C38.679 9.16197 38.4185 8.09103 38.4185 6.88694C38.4185 5.68285 38.679 4.61191 39.2 3.67411C39.7325 2.72473 40.4677 1.98954 41.4055 1.46855C42.3433 0.935968 43.4143 0.669679 44.6183 0.669679C46.0771 0.669679 47.3044 1.0228 48.3001 1.72904C49.3073 2.43529 49.9731 3.41361 50.2972 4.66401H47.0149ZM59.7398 10.8465H55.1897L54.4603 13H51.3517L55.7628 0.808613H59.2014L63.6126 13H60.4692L59.7398 10.8465ZM58.9757 8.55414L57.4648 4.09091L55.9712 8.55414H58.9757ZM75.4098 0.808613L71.1897 8.97094V13H68.22V8.97094L63.9999 0.808613H67.3691L69.7309 5.91441L72.0754 0.808613H75.4098ZM84.1956 10.8465H79.6455L78.9161 13H75.8075L80.2186 0.808613H83.6572L88.0683 13H84.925L84.1956 10.8465ZM83.4314 8.55414L81.9205 4.09091L80.427 8.55414H83.4314ZM55.6983 16.8086L52.5202 29H48.9253L46.9802 20.9766L44.9657 29H41.3708L38.2795 16.8086H41.4576L43.2116 25.683L45.3825 16.8086H48.6474L50.7314 25.683L52.5028 16.8086H55.6983ZM64.7768 26.8465H60.2268L59.4974 29H56.3887L60.7999 16.8086H64.2385L68.6496 29H65.5062L64.7768 26.8465ZM64.0127 24.5541L62.5018 20.0909L61.0083 24.5541H64.0127ZM72.9618 26.7076H76.8519V29H69.9921V16.8086H72.9618V26.7076ZM81.2381 26.7076H85.1282V29H78.2684V16.8086H81.2381V26.7076ZM89.5144 19.1878V21.6539H93.4913V23.9463H89.5144V26.6208H94.0123V29H86.5447V16.8086H94.0123V19.1878H89.5144ZM104.71 16.8086V19.1878H101.48V29H98.5106V19.1878H95.2804V16.8086H104.71Z" fill="white"/>
    </svg>
    