<svg width="52" height="52" viewBox="0 0 52 52" fill="none" xmlns="http://www.w3.org/2000/svg">
    <rect width="52" height="52" rx="26" fill="#0F0F0F"/>
    <path fill-rule="evenodd" clip-rule="evenodd" d="M26 24C24.8954 24 24 24.8954 24 26C24 27.1046 24.8954 28 26 28C27.1046 28 28 27.1046 28 26C28 24.8954 27.1046 24 26 24ZM22 26C22 23.7909 23.7909 22 26 22C28.2091 22 30 23.7909 30 26C30 28.2091 28.2091 30 26 30C23.7909 30 22 28.2091 22 26Z" fill="white"/>
    <path fill-rule="evenodd" clip-rule="evenodd" d="M22.7296 18.541C22.7296 17.1377 23.8672 16 25.2706 16H26.7293C28.1327 16 29.2703 17.1377 29.2703 18.541C29.2703 18.7444 29.4106 19.0158 29.7458 19.1978C29.8489 19.2538 29.9507 19.3121 30.0509 19.3725C30.3852 19.5741 30.6991 19.5611 30.8833 19.4557C32.1071 18.7555 33.6666 19.1733 34.3764 20.3916L35.0808 21.6008C35.7919 22.8214 35.3722 24.3877 34.1461 25.0892C33.9683 25.1909 33.8012 25.4496 33.8093 25.8346C33.8105 25.8896 33.8111 25.9448 33.8111 26C33.8111 26.0552 33.8105 26.1104 33.8093 26.1654C33.8012 26.5504 33.9683 26.8091 34.1461 26.9108C35.3722 27.6123 35.7919 29.1786 35.0808 30.3992L34.3763 31.6084C33.6666 32.8267 32.1071 33.2445 30.8833 32.5443C30.699 32.4389 30.3852 32.4259 30.0509 32.6275C29.9507 32.6879 29.8489 32.7462 29.7458 32.8022C29.4106 32.9842 29.2703 33.2556 29.2703 33.459C29.2703 34.8623 28.1327 36 26.7293 36H25.2706C23.8672 36 22.7296 34.8623 22.7296 33.459C22.7296 33.2556 22.5893 32.9842 22.2541 32.8022C22.151 32.7462 22.0492 32.6879 21.949 32.6275C21.6147 32.4259 21.3009 32.4389 21.1166 32.5443C19.8928 33.2445 18.3333 32.8267 17.6236 31.6084L16.9191 30.3992C16.208 29.1786 16.6277 27.6123 17.8538 26.9108C18.0316 26.8091 18.1987 26.5504 18.1906 26.1654C18.1894 26.1104 18.1888 26.0553 18.1888 26C18.1888 25.9448 18.1894 25.8896 18.1906 25.8346C18.1987 25.4497 18.0316 25.191 17.8538 25.0892C16.6277 24.3877 16.208 22.8214 16.9191 21.6008L17.6235 20.3916C18.3333 19.1733 19.8928 18.7555 21.1166 19.4557C21.3008 19.5611 21.6147 19.5741 21.949 19.3725C22.0492 19.3121 22.151 19.2538 22.2541 19.1978C22.5893 19.0158 22.7296 18.7444 22.7296 18.541ZM25.2706 18C24.9718 18 24.7296 18.2422 24.7296 18.541C24.7296 19.6471 24.0241 20.5125 23.2086 20.9553C23.1319 20.997 23.0562 21.0404 22.9816 21.0854C22.1861 21.5649 21.0841 21.7413 20.1233 21.1916C19.853 21.0369 19.5085 21.1293 19.3517 21.3984L18.6472 22.6075C18.4952 22.8685 18.5849 23.2033 18.8471 23.3533C19.8094 23.9039 20.2098 24.9487 20.1901 25.8769C20.1893 25.9178 20.1888 25.9589 20.1888 26C20.1888 26.0412 20.1893 26.0822 20.1901 26.1231C20.2098 27.0513 19.8094 28.0961 18.8471 28.6467C18.585 28.7967 18.4952 29.1315 18.6473 29.3924L19.3517 30.6016C19.5085 30.8708 19.853 30.9631 20.1234 30.8084C21.0841 30.2587 22.1861 30.4351 22.9816 30.9146C23.0562 30.9596 23.1319 31.003 23.2086 31.0447C24.0241 31.4875 24.7296 32.3529 24.7296 33.459C24.7296 33.7578 24.9718 34 25.2706 34H26.7293C27.0281 34 27.2703 33.7578 27.2703 33.459C27.2703 32.3529 27.9758 31.4875 28.7913 31.0447C28.868 31.003 28.9437 30.9596 29.0183 30.9146C29.8138 30.4351 30.9158 30.2587 31.8765 30.8084C32.1469 30.9631 32.4914 30.8708 32.6482 30.6016L33.3526 29.3924C33.5047 29.1315 33.4149 28.7967 33.1528 28.6467C32.1905 28.0961 31.7901 27.0513 31.8098 26.1231C31.8106 26.0822 31.8111 26.0412 31.8111 26C31.8111 25.9589 31.8106 25.9178 31.8098 25.8769C31.7901 24.9487 32.1905 23.9039 33.1528 23.3533C33.415 23.2033 33.5047 22.8685 33.3527 22.6075L32.6482 21.3984C32.4915 21.1292 32.1469 21.0369 31.8766 21.1916C30.9158 21.7413 29.8138 21.5649 29.0183 21.0854C28.9437 21.0404 28.868 20.997 28.7913 20.9553C27.9758 20.5125 27.2703 19.6471 27.2703 18.541C27.2703 18.2422 27.0281 18 26.7293 18H25.2706Z" fill="white"/>
    </svg>
    