<svg width="52" height="52" viewBox="0 0 52 52" fill="none" xmlns="http://www.w3.org/2000/svg">
    <rect width="52" height="52" rx="26" fill="#0F0F0F"/>
    <path fill-rule="evenodd" clip-rule="evenodd" d="M24 20.0717C22.9706 20.2203 21.9828 20.5972 21.111 21.1797C19.9599 21.9488 19.0627 23.0421 18.5328 24.3212C18.003 25.6002 17.8644 27.0077 18.1345 28.3656C18.4046 29.7234 19.0713 30.9707 20.0503 31.9497C21.0292 32.9287 22.2765 33.5953 23.6344 33.8654C24.9922 34.1355 26.3997 33.9969 27.6788 33.4671C28.9579 32.9373 30.0511 32.0401 30.8203 30.8889C31.4028 30.0172 31.7796 29.0294 31.9282 27.9999H26C24.8954 27.9999 24 27.1045 24 25.9999V20.0717ZM23.8779 18.0702C25.1074 17.9157 26 18.9344 26 19.9999V25.9999H32C33.0656 25.9999 34.0843 26.8925 33.9298 28.122C33.7561 29.5045 33.263 30.8331 32.4832 32.0001C31.4943 33.4801 30.0887 34.6337 28.4442 35.3149C26.7996 35.996 24.99 36.1743 23.2442 35.827C21.4984 35.4797 19.8947 34.6226 18.636 33.3639C17.3774 32.1052 16.5202 30.5016 16.1729 28.7558C15.8257 27.0099 16.0039 25.2003 16.6851 23.5558C17.3663 21.9113 18.5198 20.5057 19.9999 19.5167C21.1669 18.737 22.4955 18.2439 23.8779 18.0702Z" fill="white"/>
    <path fill-rule="evenodd" clip-rule="evenodd" d="M27 18C27 16.9411 27.8925 15.9022 29.139 16.0815C29.7978 16.1762 30.4438 16.3531 31.0615 16.6089C32.0321 17.011 32.914 17.6002 33.6569 18.3431C34.3997 19.086 34.989 19.9679 35.391 20.9385C35.6469 21.5562 35.8237 22.2021 35.9185 22.861C36.0978 24.1074 35.0589 25 34 25L28.1 25C27.4925 25 27 24.5075 27 23.9V18ZM33.9161 23C33.8411 22.5563 33.7163 22.1215 33.5433 21.7039C33.2417 20.9759 32.7998 20.3145 32.2426 19.7573C31.6855 19.2002 31.0241 18.7582 30.2961 18.4567C29.8785 18.2837 29.4436 18.1589 29 18.0839V23L33.9161 23Z" fill="white"/>
    </svg>
    