<svg width="52" height="52" viewBox="0 0 52 52" fill="none" xmlns="http://www.w3.org/2000/svg">
    <rect width="52" height="52" rx="26" fill="#0F0F0F"/>
    <path fill-rule="evenodd" clip-rule="evenodd" d="M26 18C21.5817 18 18 21.5817 18 26C18 30.4183 21.5817 34 26 34C30.4183 34 34 30.4183 34 26C34 21.5817 30.4183 18 26 18ZM16 26C16 20.4772 20.4772 16 26 16C31.5228 16 36 20.4772 36 26C36 31.5228 31.5228 36 26 36C20.4772 36 16 31.5228 16 26Z" fill="white"/>
    <path fill-rule="evenodd" clip-rule="evenodd" d="M24.0854 20.0422C23.4305 21.5156 23 23.6211 23 26C23 28.3789 23.4305 30.4844 24.0854 31.9578C24.4134 32.6958 24.778 33.2311 25.1324 33.5683C25.4816 33.9007 25.7731 34 26 34C26.2269 34 26.5184 33.9007 26.8676 33.5683C27.222 33.2311 27.5866 32.6958 27.9146 31.9578C28.5695 30.4844 29 28.3789 29 26C29 23.6211 28.5695 21.5156 27.9146 20.0422C27.5866 19.3042 27.222 18.7689 26.8676 18.4317C26.5184 18.0993 26.2269 18 26 18C25.7731 18 25.4816 18.0993 25.1324 18.4317C24.778 18.7689 24.4134 19.3042 24.0854 20.0422ZM23.7536 16.9829C24.3615 16.4044 25.1223 16 26 16C26.8777 16 27.6385 16.4044 28.2464 16.9829C28.8491 17.5565 29.3464 18.3392 29.7422 19.2299C30.5351 21.0139 31 23.4083 31 26C31 28.5917 30.5351 30.9861 29.7422 32.7701C29.3464 33.6608 28.8491 34.4435 28.2464 35.0171C27.6385 35.5956 26.8777 36 26 36C25.1223 36 24.3615 35.5956 23.7536 35.0171C23.1509 34.4435 22.6536 33.6608 22.2578 32.7701C21.4649 30.9861 21 28.5917 21 26C21 23.4083 21.4649 21.0139 22.2578 19.2299C22.6536 18.3392 23.1509 17.5565 23.7536 16.9829Z" fill="white"/>
    <path fill-rule="evenodd" clip-rule="evenodd" d="M26.1584 30C22.8707 30 20.0954 30.7732 18.5664 31.8241L17.4336 30.1759C19.4125 28.8158 22.6355 28 26.1584 28C29.4844 28 32.5304 28.7265 34.521 29.9415L33.4791 31.6486C31.8986 30.684 29.2489 30 26.1584 30Z" fill="white"/>
    <path fill-rule="evenodd" clip-rule="evenodd" d="M26.0641 24C22.5786 24 19.3884 23.1834 17.4291 21.821L18.5709 20.179C20.0788 21.2275 22.8177 22 26.0641 22C29.2286 22 31.9165 21.2656 33.4485 20.2527L34.5515 21.921C32.5847 23.2214 29.4682 24 26.0641 24Z" fill="white"/>
    </svg>
    